<svg xmlns="http://www.w3.org/2000/svg" width="45" height="52" viewBox="0 0 45 52" fill="none">
  <path d="M35.1468 2.96075C36.9064 2.96075 38.333 4.42399 38.333 6.22873V11.9477C38.333 20.5204 25.5879 27.4706 25.5879 27.4706C25.5879 27.4706 12.8428 20.5204 12.8428 11.9477V6.22873C12.8428 4.42399 14.2695 2.96075 16.0291 2.96075" stroke="#286C77" stroke-width="2" stroke-linejoin="round"/>
  <path fill-rule="evenodd" clip-rule="evenodd" d="M20.686 3.45098C20.686 4.80392 19.5879 5.90196 18.235 5.90196C16.882 5.90196 15.784 4.80392 15.784 3.45098C15.784 2.09804 16.882 1 18.235 1C19.5879 1 20.686 2.09804 20.686 3.45098Z" stroke="#286C77" stroke-width="2" stroke-linejoin="round"/>
  <path fill-rule="evenodd" clip-rule="evenodd" d="M35.3919 3.45098C35.3919 4.80392 34.2938 5.90196 32.9409 5.90196C31.5879 5.90196 30.4899 4.80392 30.4899 3.45098C30.4899 2.09804 31.5879 1 32.9409 1C34.2938 1 35.3919 2.09804 35.3919 3.45098Z" stroke="#286C77" stroke-width="2" stroke-linejoin="round"/>
  <path d="M25.0977 27.4706V33.3529" stroke="#286C77" stroke-width="2" stroke-linejoin="round"/>
  <path d="M25.4409 35.7594V42.1765C25.4409 47.0495 29.4243 51 34.3379 51C39.2515 51 43.235 47.0495 43.235 42.1765C43.235 37.3035 39.2515 33.353 34.3379 33.353H10.882" stroke="#286C77" stroke-width="2" stroke-linejoin="round"/>
  <path d="M35.3919 18.647C35.3919 18.647 32.0946 20.6078 25.0977 20.6078C18.1009 20.6078 14.8036 18.647 14.8036 18.647" stroke="#286C77" stroke-width="2" stroke-linejoin="round"/>
  <path d="M40.2938 42.1765C40.2938 45.4252 37.6602 48.0588 34.4115 48.0588C31.1627 48.0588 28.5291 45.4252 28.5291 42.1765C28.5291 38.9277 31.1627 36.2941 34.4115 36.2941" stroke="#286C77" stroke-width="2" stroke-linejoin="round"/>
  <path fill-rule="evenodd" clip-rule="evenodd" d="M10.882 33.3529C10.882 36.0596 8.68679 38.2549 5.98009 38.2549C3.27339 38.2549 1.07812 36.0596 1.07812 33.3529C1.07812 30.6463 3.27339 28.451 5.98009 28.451C8.68679 28.451 10.882 30.6463 10.882 33.3529Z" stroke="#286C77" stroke-width="2" stroke-linejoin="round"/>
  <path fill-rule="evenodd" clip-rule="evenodd" d="M6.96048 33.353C6.96048 33.8951 6.52224 34.3333 5.98009 34.3333C5.43793 34.3333 4.99969 33.8951 4.99969 33.353C4.99969 32.8108 5.43793 32.3726 5.98009 32.3726C6.52224 32.3726 6.96048 32.8108 6.96048 33.353Z" stroke="#286C77" stroke-width="2" stroke-linejoin="round"/>
</svg>