<svg xmlns="http://www.w3.org/2000/svg" width="50" height="50" viewBox="0 0 50 50" fill="none">
  <path fill-rule="evenodd" clip-rule="evenodd" d="M26.8184 0.0660471C19.7921 -0.435615 13.0939 1.93325 7.96313 6.73765C2.90252 11.4765 0 18.1798 0 25.1297C0 31.0496 2.10228 36.8624 5.91888 41.3745C6.59919 42.179 7.29774 42.9728 8.07366 43.6862C8.13881 43.7461 8.20874 43.8119 8.28275 43.8816L8.2829 43.8818C8.87374 44.438 9.72498 45.2395 10.4876 45.2395C10.9966 45.2395 11.4089 44.8251 11.4089 44.3134V29.5985C11.4089 27.7097 12.9375 26.1725 14.8165 26.1725H17.5428C19.1206 26.1725 20.4597 27.2608 20.8382 28.758C19.8783 29.708 19.2808 31.0274 19.2808 32.4857C19.2808 34.0013 19.9291 35.3646 20.957 36.3212V36.3746C19.7738 37.1846 19.0587 38.519 19.0587 39.9807V48.7022C19.0587 49.2139 19.471 49.6283 19.98 49.6283C20.4889 49.6283 20.9012 49.2139 20.9012 48.7022V48.6345V39.9818C20.9012 39.0251 21.434 38.1618 22.295 37.7273C22.5205 37.6123 22.7581 37.5418 23.0013 37.5007C23.4733 37.6423 23.9717 37.7212 24.489 37.7212C25.0074 37.7212 25.507 37.6423 25.9795 37.5001C27.1788 37.7001 28.079 38.7579 28.079 39.9823V48.1106V49.0739C28.079 49.5856 28.4913 50 29.0003 50C29.5093 50 29.9216 49.5856 29.9216 49.0739V39.9818C29.9216 38.4951 29.1561 37.1485 27.9845 36.3546C29.0329 35.3963 29.6961 34.0196 29.6961 32.4863C29.6961 30.5152 28.6057 28.7963 27.0003 27.9036V25.5247C27.0003 23.2003 28.8815 21.3086 31.1938 21.3086H34.4052C36.7142 21.3086 38.5926 23.1969 38.5926 25.5186V41.9679C38.5926 42.8062 39.069 43.5362 39.8356 43.8734C40.5982 44.2089 41.4504 44.0656 42.0638 43.4962C47.5986 38.3012 50.4685 30.9507 49.9374 23.3308C49.0814 10.9476 39.1425 0.946038 26.8184 0.0660471ZM16.1794 24.038C13.7041 24.038 11.6897 22.0131 11.6897 19.5247C11.6897 17.0364 13.7041 15.012 16.1794 15.012C18.6547 15.012 20.6686 17.0364 20.6686 19.5247C20.6691 22.0136 18.6553 24.038 16.1794 24.038ZM24.4879 35.869C26.3432 35.869 27.853 34.3513 27.853 32.4863C27.853 30.6213 26.3432 29.1035 24.4879 29.1035C22.6327 29.1035 21.1228 30.6207 21.1228 32.4863C21.1228 34.3513 22.6321 35.869 24.4879 35.869ZM32.7959 19.232C29.7851 19.232 27.3352 16.7692 27.3352 13.7426C27.3352 10.7159 29.7851 8.25319 32.7959 8.25319C35.8067 8.25319 38.2566 10.7159 38.2566 13.7426C38.2566 16.7692 35.8073 19.232 32.7959 19.232ZM40.5728 42.1773C40.6618 42.2156 40.7402 42.204 40.8093 42.1401C45.9329 37.3312 48.5912 30.5213 48.0993 23.4603C47.3074 11.9915 38.1024 2.72824 26.688 1.91325C20.1817 1.44937 13.9721 3.64212 9.21931 8.09263C4.53118 12.482 1.84253 18.692 1.84253 25.1297C1.84253 31.8141 4.64171 38.0651 9.56692 42.484V29.5991C9.56692 27.4691 10.8308 25.6347 12.6419 24.8014C10.9574 23.6564 9.84767 21.7181 9.84767 19.5247C9.84767 16.0148 12.6883 13.1598 16.1794 13.1598C19.671 13.1598 22.5111 16.0148 22.5111 19.5247C22.5111 21.7175 21.4019 23.6553 19.7185 24.8002C20.9493 25.3647 21.9314 26.3925 22.4321 27.6786C23.0632 27.4052 23.7579 27.2519 24.4879 27.2519C24.7151 27.2519 24.9372 27.2719 25.1566 27.3002V25.5252C25.1566 23.0053 26.693 20.8403 28.8732 19.9247C26.8444 18.6192 25.4932 16.3387 25.4932 13.7426C25.4932 9.69429 28.7693 6.40154 32.7959 6.40154C36.8225 6.40154 40.0986 9.69484 40.0986 13.7426C40.0986 16.3387 38.7479 18.6186 36.7197 19.9242C38.8983 20.8386 40.4335 23.0014 40.4335 25.5191V41.9684C40.4335 42.0906 40.5092 42.1495 40.5728 42.1773Z" fill="#286C77"/>
</svg>