<svg width="350" height="84" viewBox="0 0 350 84" fill="none" xmlns="http://www.w3.org/2000/svg">
<path d="M49.3584 9.3424V0C49.313 0 49.2677 0 49.2223 0C47.0447 0 44.9125 0.136054 42.8257 0.408163L44.0052 9.47846C45.7291 9.2517 47.4984 9.11564 49.313 9.11564L49.3584 9.3424Z" fill="#939598"/>
<path d="M18.7815 45.1247L27.7187 46.3039C27.8548 45.3515 28.0362 44.4445 28.2631 43.5374C28.4899 42.6304 28.8075 41.7234 29.1704 40.8617L20.8684 37.415L12.3396 33.8776C11.6591 35.4649 11.1147 37.1429 10.661 38.8209L1.72387 36.4172C1.17947 38.4581 0.771176 40.5896 0.453613 42.7211L9.61758 43.9456L18.7815 45.1247Z" fill="#939598"/>
<path d="M62.0607 1.72333L59.7017 10.5215C61.3802 10.975 63.0588 11.5646 64.6466 12.1995L68.1851 3.80949C66.189 2.94782 64.1475 2.26755 62.0607 1.72333Z" fill="#939598"/>
<path d="M30.5312 73.4694C29.4878 72.653 28.4444 71.746 27.4917 70.839L20.959 77.3242C22.1839 78.5487 23.4995 79.7279 24.8605 80.771L30.5312 73.4694Z" fill="#939598"/>
<path d="M19.5528 57.0975L28.2631 54.7845C28.0363 53.8775 27.8548 52.9705 27.7187 52.0181C27.5826 51.0657 27.5373 50.1133 27.5373 48.9342H18.5094C18.5094 50.4762 18.6001 51.8367 18.7816 53.1519L9.66299 54.331C9.43616 52.6077 9.30007 50.8843 9.30007 49.161H0C0.0453662 51.3378 0.181465 53.4694 0.453662 55.5555C0.725859 57.687 1.13415 59.8186 1.67855 61.8594L10.661 59.4557L19.5528 57.0975Z" fill="#939598"/>
<path d="M31.9831 62.3129C31.3934 61.542 30.8943 60.771 30.3953 59.9547C29.9417 59.1383 29.488 58.322 29.1251 57.415L20.8231 60.8617C21.3221 62.0862 21.9118 63.3107 22.5923 64.4445L14.6079 69.0703L6.53271 73.7415C7.6215 75.6009 8.80102 77.3696 10.1166 79.093C11.4323 80.8163 12.8386 82.4036 14.3357 83.9456L20.9138 77.3696C19.6889 76.1451 18.5547 74.8299 17.466 73.424L24.7699 67.8005L31.9831 62.3129Z" fill="#939598"/>
<path d="M54.9385 28.0725C55.8458 28.2993 56.7531 28.6168 57.6151 28.9796L61.1083 20.6802C59.8834 20.1814 58.6131 19.7279 57.2975 19.3651L54.9385 28.0725Z" fill="#939598"/>
<path d="M45.1849 18.6394L44.0054 9.52378C42.2361 9.75054 40.5576 10.1133 38.879 10.5669L36.52 1.72333C34.4331 2.26755 32.3917 2.99317 30.4409 3.80949L33.8887 12.1995L37.4273 20.7256C36.2024 21.2245 34.9775 21.8594 33.8434 22.5397L38.3346 30.2948C39.1512 29.8412 40.0132 29.3877 40.8751 29.0249C41.7371 28.6621 42.6444 28.3446 43.5517 28.1179C44.4591 27.8911 45.3664 27.6644 46.3191 27.5737C47.2718 27.4376 48.2698 27.3923 49.2679 27.3923C49.3132 27.3923 49.3132 27.3923 49.3586 27.3923V18.4127C47.9523 18.322 46.5459 18.4127 45.1849 18.6394Z" fill="#939598"/>
<path d="M49.3582 18.322C50.7192 18.322 52.0348 18.4127 53.3504 18.5941L54.5753 9.47847C52.8514 9.25172 51.1275 9.11566 49.1313 9.11566L49.3582 18.322Z" fill="#939598"/>
<path d="M24.8605 17.415L19.2804 10.1588C17.5565 11.4739 15.9687 12.8798 14.4263 14.3764L20.9136 20.8617L27.4464 27.3923C28.399 26.4399 29.3971 25.5329 30.4859 24.7166C31.5293 23.9002 32.6635 23.1293 33.843 22.449L29.2156 14.5125C27.7186 15.3742 26.2668 16.3719 24.8605 17.415Z" fill="#939598"/>
<path d="M31.9379 35.9183C32.5277 35.1474 33.1628 34.4218 33.7979 33.7415L27.4467 27.3923C26.494 28.3447 25.632 29.3424 24.8154 30.4308L31.9379 35.9183Z" fill="#939598"/>
<path d="M10.2075 19.229C8.89184 20.907 7.71232 22.7211 6.62354 24.5805L14.608 29.2063L22.5924 33.8322C23.2729 32.653 23.9988 31.5646 24.8154 30.4762L17.5114 24.8526L10.2075 19.229Z" fill="#939598"/>
<path d="M73.9017 6.66669L69.3197 14.5578L64.6924 22.5397C65.8719 23.22 66.9607 23.9909 68.0495 24.8073L73.6749 17.5057L79.2549 10.2495C77.531 8.93426 75.7617 7.70977 73.9017 6.66669Z" fill="#939598"/>
<path d="M69.3197 14.5124C67.8226 13.6508 66.2348 12.8798 64.647 12.1995L61.1084 20.6802C62.3333 21.1791 63.5582 21.814 64.6923 22.4943L69.3197 14.5124Z" fill="white"/>
<path d="M53.3504 18.5941L52.1709 27.5284C53.1236 27.6644 54.0309 27.8458 54.9382 28.0726L57.2973 19.4104C56.027 19.0476 54.7114 18.7755 53.3504 18.5941Z" fill="white"/>
<path d="M49.2678 9.34242C47.4532 9.11566 45.7292 9.25172 43.96 9.47847L45.1395 18.5941C46.5005 18.4127 47.8615 18.322 49.2224 18.322C49.2678 18.322 49.2678 18.322 49.3132 18.322V9.11566L49.2678 9.34242Z" fill="white"/>
<path d="M12.2944 33.8776L20.8233 37.415C21.3223 36.1905 21.9121 34.966 22.5926 33.8322L14.6081 29.161C13.7462 30.703 12.9749 32.2449 12.2944 33.8776Z" fill="white"/>
<path d="M21.0045 77.3242L27.5372 70.839C26.5845 69.8866 25.7226 68.8889 24.906 67.8004L17.5566 73.3786C18.6001 74.7845 19.7796 76.0997 21.0045 77.3242Z" fill="white"/>
<path d="M22.5923 33.7869L30.3953 38.2766C30.8489 37.4603 31.3933 36.644 31.9831 35.9184L24.8152 30.4308C23.9986 31.5193 23.2728 32.6531 22.5923 33.7869Z" fill="white"/>
<path d="M18.5093 49.1156V49.161H27.4918V49.1156C27.4918 48.1632 27.5371 47.2109 27.6732 46.3038L18.7361 45.1247C18.6 46.4399 18.5093 47.8004 18.5093 49.1156Z" fill="white"/>
<path d="M12.3397 64.3991L20.8686 60.8616C20.3695 59.6372 19.9159 58.3673 19.5983 57.0975L10.7065 59.4557C11.1148 61.1338 11.6592 62.8118 12.3397 64.3991Z" fill="white"/>
<path d="M30.4858 24.7619L35.9751 31.8821C36.7464 31.2925 37.5176 30.7483 38.3342 30.2948L33.8429 22.4943C32.6634 23.1746 31.5293 23.9002 30.4858 24.7619Z" fill="white"/>
<path fill-rule="evenodd" clip-rule="evenodd" d="M40.1037 71.1564C40.512 71.2925 40.9203 71.3832 41.3739 71.3832C41.8276 71.3832 42.2359 71.2925 42.6442 71.1564C43.0525 70.975 43.37 70.7483 43.6422 70.4762C43.9144 70.2041 44.1413 69.8412 44.2774 69.4784C44.4135 69.1156 44.5042 68.7075 44.5042 68.2539C44.5042 67.8458 44.4135 67.3923 44.2774 67.0295C44.1413 66.6666 43.9144 66.3038 43.6422 66.0317C43.37 65.7143 43.0071 65.5329 42.6442 65.3515C42.2359 65.2154 41.8276 65.1247 41.3739 65.1247C40.9203 65.1247 40.4666 65.17 40.1037 65.3515C39.6954 65.5329 39.3778 65.7596 39.1056 66.0317C38.8334 66.3038 38.6066 66.6666 38.4705 67.0295C38.3344 67.3923 38.2437 67.8004 38.2437 68.2539C38.2437 68.6621 38.3344 69.1156 38.4705 69.4784C38.6066 69.8412 38.8334 70.1587 39.1056 70.4762C39.3778 70.7936 39.7407 70.975 40.1037 71.1564ZM42.3266 70.4308C42.009 70.5669 41.7368 70.6122 41.3739 70.6122C41.011 70.6122 40.6934 70.5669 40.4212 70.4308C40.149 70.2948 39.8768 70.1587 39.6954 69.9319C39.5139 69.7052 39.3324 69.4331 39.2417 69.161C39.1056 68.8889 39.0602 68.5714 39.0602 68.2539C39.0602 67.9365 39.151 67.619 39.2417 67.3469C39.3324 67.0295 39.5139 66.8027 39.6954 66.5759L39.6954 66.5759C39.9222 66.3945 40.149 66.2131 40.4212 66.0771C40.7388 65.941 41.011 65.8957 41.3739 65.8957C41.7368 65.8957 42.0544 65.941 42.3266 66.0771C42.5988 66.2131 42.871 66.3492 43.0525 66.5759C43.2339 66.8027 43.4154 67.0748 43.5061 67.3469C43.6422 67.619 43.6876 67.9365 43.6876 68.2539C43.6876 68.5714 43.5969 68.8889 43.5061 69.161C43.4154 69.4784 43.2339 69.7052 43.0525 69.9319C42.8256 70.1134 42.5988 70.2948 42.3266 70.4308Z" fill="white"/>
<path d="M45.5478 67.3016H46.2737V67.8005C46.3644 67.5737 46.5459 67.4376 46.7727 67.3016C46.9995 67.1655 47.3171 67.1202 47.6347 67.1202C47.8161 67.1202 48.0429 67.1655 48.2244 67.2109C48.4059 67.2562 48.5873 67.3469 48.7234 67.483C48.8595 67.619 48.9503 67.7551 49.041 67.9365C49.1317 68.1179 49.1771 68.3447 49.1771 68.6168V71.1565H48.4059V68.7982C48.4059 68.6168 48.3605 68.4354 48.3151 68.2993C48.2698 68.1633 48.179 68.0726 48.0883 67.9819C47.9976 67.8912 47.9068 67.8458 47.7707 67.8005C47.6347 67.7551 47.5439 67.7551 47.4078 67.7551C47.2264 67.7551 47.0903 67.8005 46.9542 67.8458C46.8181 67.8912 46.682 67.9819 46.5912 68.0726C46.5005 68.1633 46.4098 68.3447 46.319 68.4807C46.2737 68.6621 46.2283 68.8435 46.2283 69.0703V71.3832H45.5024V67.3016H45.5478Z" fill="white"/>
<path d="M52.4431 68.0272H51.2636V69.8413C51.2636 69.932 51.2636 70.068 51.2636 70.1587C51.2636 70.2494 51.3089 70.3855 51.3089 70.4762C51.3089 70.5669 51.3997 70.6122 51.4904 70.7029C51.5811 70.7483 51.6718 70.7936 51.8533 70.7936C51.944 70.7936 52.0348 70.7936 52.1709 70.7483C52.2616 70.7483 52.3523 70.7029 52.4431 70.6576V71.2018C52.3523 71.2472 52.2162 71.2925 52.0801 71.2925C51.944 71.2925 51.8079 71.3379 51.7626 71.3379C51.445 71.3379 51.2182 71.2925 51.0821 71.2018C50.9006 71.1111 50.8099 71.0204 50.7192 70.8843C50.6284 70.7483 50.5831 70.6122 50.5831 70.4308C50.5831 70.2494 50.5831 70.1134 50.5831 69.932V67.9818H49.6304V67.2562H50.5831V66.1224H51.3089V67.3016H52.4884V68.0272H52.4431Z" fill="white"/>
<path fill-rule="evenodd" clip-rule="evenodd" d="M54.2125 67.2109C53.8949 67.3016 53.6681 67.483 53.4413 67.6644L53.9857 68.0726C54.0764 67.9819 54.1218 67.9365 54.2125 67.8912C54.2579 67.8458 54.3486 67.8005 54.4393 67.7551C54.4847 67.7324 54.5414 67.7211 54.5981 67.7097C54.6548 67.6984 54.7115 67.6871 54.7569 67.6644C54.893 67.619 55.0291 67.619 55.1652 67.619C55.3013 67.619 55.4374 67.6644 55.5735 67.7097C55.7096 67.7551 55.8003 67.8005 55.891 67.8912C55.9818 67.9819 56.0271 68.0726 56.0725 68.1633C56.1179 68.254 56.1179 68.39 56.1179 68.4807V68.6621H55.5735C55.2559 68.6621 54.9837 68.7075 54.7115 68.7528C54.4393 68.7982 54.1671 68.8889 53.9857 68.9796C53.7588 69.1156 53.6227 69.2517 53.4866 69.4331C53.3505 69.6145 53.3052 69.8413 53.3052 70.1134C53.3052 70.3401 53.3052 70.5215 53.3959 70.6576C53.4866 70.7936 53.5774 70.9297 53.7135 71.0204C53.8496 71.1111 53.9857 71.2018 54.1671 71.2472L54.1671 71.2472C54.3486 71.2925 54.5301 71.3379 54.7115 71.3379C55.0291 71.3379 55.3013 71.2472 55.5281 71.1565C55.7219 71.079 55.8826 70.9352 56.0385 70.7253C56.0519 70.869 56.0725 71.124 56.0725 71.3379H56.753C56.7076 71.1111 56.7076 71.0204 56.7076 70.8844C56.7076 70.7483 56.7984 70.4762 56.7984 70.4762V68.4354C56.7984 68.2851 56.7672 68.1659 56.7308 68.0263C56.7232 67.9974 56.7154 67.9676 56.7076 67.9365C56.6169 67.7551 56.5262 67.619 56.3901 67.483C56.254 67.3469 56.0725 67.2562 55.8457 67.1655C55.6188 67.1202 55.392 67.0748 55.0745 67.0748C54.8023 67.0748 54.4847 67.1202 54.2125 67.2109ZM55.0745 69.2517C55.2559 69.2063 55.4374 69.2063 55.6189 69.2063V69.2517H56.0725V69.5238C56.0725 69.6599 56.0725 69.7959 56.0271 69.932C55.9818 70.068 55.9364 70.2041 55.8457 70.2948C55.755 70.3855 55.6189 70.4762 55.4828 70.5669C55.3467 70.6122 55.1652 70.6576 54.9384 70.6576C54.6662 70.6576 54.4393 70.6122 54.3032 70.5215C54.1671 70.4308 54.0764 70.2494 54.0764 70.0227C54.0764 69.8413 54.1218 69.7052 54.2125 69.6145C54.3032 69.5238 54.4393 69.4331 54.5754 69.3878C54.7115 69.297 54.893 69.2517 55.0745 69.2517Z" fill="white"/>
<path d="M57.7055 67.0748H58.4314V67.8005H58.5675C58.6128 67.7551 58.7036 67.6644 58.7489 67.5737C58.8397 67.483 58.9304 67.3923 59.0211 67.3469C59.1119 67.3016 59.248 67.2562 59.3841 67.2109C59.5202 67.1655 59.6109 67.1655 59.747 67.1655C59.8831 67.1655 59.9738 67.1655 60.0646 67.2109L60.0192 68.0272C59.9738 68.0272 59.8831 67.9819 59.8377 67.9819C59.7924 67.9819 59.7016 67.9819 59.6563 67.9819C59.2933 67.9819 59.0211 68.0726 58.7943 68.2993C58.6128 68.5261 58.386 69.2517 58.386 69.2517V71.1565H57.6602V67.0748H57.7055Z" fill="white"/>
<path fill-rule="evenodd" clip-rule="evenodd" d="M60.9689 65.3514C60.767 65.4875 60.6997 65.6236 60.6997 65.7596C60.6997 65.941 60.767 66.0771 60.9689 66.1678C61.1709 66.3038 61.3728 66.3492 61.5747 66.3492C61.8439 66.3492 62.0459 66.2585 62.1805 66.1678C62.3824 66.0317 62.4497 65.8957 62.4497 65.7596C62.4497 65.5782 62.3151 65.4422 62.1805 65.3514C61.9786 65.2154 61.7766 65.17 61.5747 65.17C61.3055 65.17 61.1036 65.2607 60.9689 65.3514ZM61.9112 67.3016H60.8343V71.3378H61.9112V67.3016Z" fill="white"/>
<path fill-rule="evenodd" clip-rule="evenodd" d="M62.7869 68.39C62.6508 68.6168 62.6055 68.9342 62.6055 69.2063C62.6055 69.5238 62.6508 69.7959 62.7869 70.0227C62.8777 70.2948 63.0591 70.5215 63.2406 70.7029C63.4221 70.8844 63.6489 71.0658 63.9211 71.1565C64.1479 71.2925 64.4201 71.3379 64.7377 71.3379C65.0099 71.3379 65.2821 71.2472 65.5543 71.1565C65.8265 71.0204 66.0533 70.8844 66.2348 70.7029C66.4162 70.5215 66.5977 70.2948 66.6884 70.0227C66.8245 69.7959 66.8699 69.4785 66.8699 69.2063C66.8699 68.9342 66.7792 68.6621 66.6884 68.39L66.6884 68.39C66.5977 68.1179 66.4162 67.8912 66.2348 67.7097C66.0533 67.5283 65.8265 67.3469 65.5543 67.2562C65.3274 67.1202 65.0552 67.0748 64.7377 67.0748C64.4655 67.0748 64.1933 67.1655 63.9211 67.2562C63.6489 67.3469 63.4221 67.5283 63.2406 67.7097C63.0591 67.8912 62.8777 68.1179 62.7869 68.39ZM63.5128 69.7506C63.4674 69.6145 63.4221 69.3878 63.4221 69.2063C63.4221 69.0249 63.4221 68.8435 63.5128 68.6621C63.6035 68.4807 63.6943 68.3447 63.785 68.2086C63.8757 68.1179 64.0118 68.0272 64.1933 67.9365C64.3294 67.8912 64.5562 67.8458 64.7377 67.8458C64.9191 67.8458 65.1006 67.8458 65.2821 67.9365C65.4182 67.9819 65.5996 68.0726 65.6904 68.2086C65.8265 68.3447 65.9172 68.4807 65.9626 68.6621C66.0079 68.7982 66.0533 69.0249 66.0533 69.2063C66.0533 69.3878 66.0079 69.5692 65.9626 69.7506L65.9626 69.7506C65.8718 69.932 65.7811 70.068 65.6904 70.2041C65.5996 70.2948 65.4635 70.3855 65.2821 70.4762C65.146 70.5215 64.9191 70.5669 64.7377 70.5669C64.5562 70.5669 64.3747 70.5669 64.1933 70.4762C64.0572 70.4308 63.8757 70.3401 63.785 70.2041C63.6489 70.068 63.5582 69.932 63.5128 69.7506Z" fill="white"/>
<path d="M70.5898 65.17H71.3157V71.1111H70.5898V65.2154V65.17Z" fill="white"/>
<path d="M72.4951 67.3016H73.221V67.8005C73.3117 67.5737 73.4932 67.4376 73.72 67.3016C73.9468 67.1655 74.2644 67.1202 74.582 67.1202C74.7634 67.1202 74.9903 67.1655 75.1717 67.2109C75.3532 67.2562 75.5347 67.3469 75.6708 67.483C75.8068 67.619 75.8976 67.7551 75.9883 67.9365C76.079 68.1179 76.1244 68.3447 76.1244 68.6168V71.1565H75.3986V68.7982C75.3986 68.6168 75.3532 68.4354 75.3078 68.2993C75.2625 68.1633 75.1717 68.0726 75.081 67.9819C74.9903 67.8912 74.8995 67.8458 74.7634 67.8005C74.6273 67.7551 74.5366 67.7551 74.4005 67.7551C74.219 67.7551 74.0829 67.8005 73.9468 67.8458C73.8107 67.8912 73.6746 67.9819 73.5839 68.0726C73.4932 68.1633 73.4024 68.3447 73.3117 68.4807C73.2663 68.6621 73.221 68.8435 73.221 69.0703V71.3832H72.4951V67.3016H72.4951Z" fill="white"/>
<path d="M79.4361 68.2086C79.3454 68.1179 79.2547 67.9819 79.1186 67.9365C78.9825 67.8458 78.801 67.8005 78.6196 67.8005C78.4381 67.8005 78.302 67.8458 78.1659 67.9365C78.0298 68.0272 77.9844 68.1179 77.9844 68.254C77.9844 68.39 78.0298 68.4807 78.1205 68.5261C78.2113 68.6168 78.302 68.6621 78.3927 68.7075C78.4835 68.7528 78.6196 68.7982 78.7103 68.7982C78.8464 68.8435 78.9371 68.8435 79.0278 68.8435C79.2093 68.8889 79.3454 68.9342 79.4815 68.9796C79.6176 69.0249 79.7537 69.1156 79.8444 69.2063C79.9352 69.297 80.0259 69.3878 80.0713 69.5238C80.1166 69.6599 80.162 69.7959 80.162 69.9773C80.162 70.2041 80.1166 70.3855 80.0259 70.5669C79.9352 70.7483 79.7991 70.839 79.663 70.9751C79.5269 71.0658 79.3454 71.1565 79.1639 71.2018C78.9825 71.2472 78.7557 71.2472 78.5742 71.2472C78.2566 71.2472 77.9391 71.2018 77.7122 71.1111C77.44 71.0204 77.2586 70.839 77.0317 70.5669L77.6215 70.1134C77.7576 70.2494 77.8937 70.3401 78.0298 70.4308C78.1659 70.5215 78.3474 70.5669 78.5742 70.5669C78.6649 70.5669 78.7557 70.5669 78.8464 70.5215C78.9371 70.5215 79.0278 70.4762 79.1186 70.4308C79.2093 70.3855 79.2547 70.3401 79.3 70.2494C79.3454 70.2041 79.3908 70.1134 79.3908 70.0227C79.3908 69.932 79.3454 69.7959 79.3 69.7506C79.2093 69.6599 79.1639 69.6145 79.0278 69.5692C78.9371 69.5238 78.8464 69.4785 78.7103 69.4785C78.6196 69.4331 78.4835 69.4331 78.4381 69.4331C78.2566 69.3878 78.1205 69.3424 77.9844 69.297C77.8483 69.2517 77.7122 69.161 77.5761 69.1156C77.4854 69.0249 77.3947 68.9342 77.3039 68.7982C77.2586 68.6621 77.2132 68.5261 77.2132 68.2993C77.2132 68.0726 77.2586 67.8912 77.3493 67.7551C77.44 67.619 77.5308 67.483 77.7122 67.3923C77.8483 67.3016 78.0298 67.2109 78.2113 67.1655C78.3927 67.1202 78.5742 67.0748 78.7557 67.0748C79.0278 67.0748 79.3 67.1202 79.5269 67.2109C79.7537 67.3016 79.9805 67.483 80.1166 67.7097L79.4361 68.2086Z" fill="white"/>
<path d="M83.4738 68.0272H82.2943V69.8413C82.2943 69.932 82.2943 70.068 82.2943 70.1587C82.2943 70.2494 82.3396 70.3855 82.3396 70.4762C82.385 70.5669 82.4304 70.6122 82.5211 70.7029C82.6118 70.7483 82.7026 70.7936 82.884 70.7936C82.9748 70.7936 83.0655 70.7936 83.2016 70.7483C83.2923 70.7483 83.3831 70.7029 83.4738 70.6576V71.2018C83.3831 71.2472 83.247 71.2925 83.1109 71.2925C82.9748 71.2925 82.8387 71.3379 82.7933 71.3379C82.4757 71.3379 82.2489 71.2925 82.1128 71.2018C81.9313 71.1111 81.8406 71.0204 81.7499 70.8843C81.6591 70.7483 81.6138 70.6122 81.6138 70.4308C81.6138 70.2494 81.6138 70.1134 81.6138 69.932V67.9818H80.6157V67.2562H81.5684V66.1224H82.2943V67.3016H83.4738V68.0272Z" fill="white"/>
<path fill-rule="evenodd" clip-rule="evenodd" d="M84.3327 65.3514C84.1308 65.4875 84.0635 65.6236 84.0635 65.7596C84.0635 65.941 84.1308 66.0771 84.3327 66.1678C84.5346 66.3038 84.7366 66.3492 84.9385 66.3492C85.2077 66.3492 85.4096 66.2585 85.5442 66.1678C85.7462 66.0317 85.8135 65.8957 85.8135 65.7596C85.8135 65.5782 85.6789 65.4422 85.5442 65.3514C85.3423 65.2154 85.1404 65.17 84.9385 65.17C84.6692 65.17 84.4673 65.2607 84.3327 65.3514ZM85.3423 67.3016H84.2654V71.3378H85.3423V67.3016Z" fill="white"/>
<path d="M88.464 68.0272H87.2845V69.8413C87.2845 69.932 87.2845 70.068 87.2845 70.1587C87.2845 70.2494 87.3299 70.3855 87.3299 70.4762C87.3752 70.5669 87.4206 70.6122 87.5113 70.7029C87.6021 70.7483 87.6928 70.7936 87.8743 70.7936C87.965 70.7936 88.0557 70.7936 88.1918 70.7483C88.2826 70.7483 88.3733 70.7029 88.464 70.6576V71.2018C88.3733 71.2472 88.2372 71.2925 88.1011 71.2925C87.965 71.2925 87.8289 71.3379 87.7835 71.3379C87.466 71.3379 87.2391 71.2925 87.103 71.2018C86.9216 71.1111 86.8308 71.0204 86.7401 70.8843C86.6494 70.7483 86.604 70.6122 86.604 70.4308C86.604 70.2494 86.604 70.1134 86.604 69.932V67.9818H85.606V67.2562H86.5586V66.1224H87.2845V67.3016H88.464V68.0272Z" fill="white"/>
<path d="M92.7739 71.3379H92.048V70.6576C91.9573 70.8843 91.7758 71.0204 91.549 71.1565C91.3222 71.2925 91.0046 71.3379 90.687 71.3379C90.5056 71.3379 90.2787 71.2925 90.0973 71.2472C89.9158 71.2018 89.7797 71.1111 89.6436 70.975C89.5075 70.839 89.4168 70.7029 89.326 70.5215C89.2353 70.3401 89.1899 70.1134 89.1899 69.8413V67.3016H89.9158V69.6599C89.9158 69.8413 89.9612 70.0227 90.0065 70.1587C90.0519 70.2948 90.1426 70.3855 90.2334 70.4762C90.3241 70.5669 90.4148 70.6122 90.5509 70.6576C90.687 70.7029 90.7778 70.7029 90.9139 70.7029C91.0953 70.7029 91.2314 70.6576 91.3675 70.6122C91.5036 70.5669 91.6397 70.4762 91.7304 70.3855C91.8212 70.2948 91.9119 70.1134 92.0026 69.9773C92.048 69.7959 92.0934 69.6145 92.0934 69.3877V67.3016H92.8192V71.3379H92.7739Z" fill="white"/>
<path d="M96.3576 68.0272H95.1327V69.8413C95.1327 69.932 95.1327 70.068 95.1327 70.1587C95.1327 70.2494 95.1781 70.3855 95.1781 70.4762C95.1781 70.5669 95.2688 70.6122 95.3595 70.7029C95.4503 70.7483 95.541 70.7936 95.7225 70.7936C95.8132 70.7936 95.9039 70.7936 96.04 70.7483C96.1308 70.7483 96.2215 70.7029 96.3122 70.6576V71.2018C96.2215 71.2472 96.0854 71.2925 95.9493 71.2925C95.8132 71.2925 95.6771 71.3379 95.6317 71.3379C95.3142 71.3379 95.0873 71.2925 94.9512 71.2018C94.7698 71.1111 94.679 71.0204 94.5883 70.8843C94.4976 70.7483 94.4522 70.6122 94.4522 70.4308C94.4522 70.2494 94.4522 70.1134 94.4522 69.932V67.9818H93.4995V67.2562H94.4522V66.1224H95.1781V67.3016H96.3576V68.0272Z" fill="white"/>
<path fill-rule="evenodd" clip-rule="evenodd" d="M97.8093 69.932C97.7185 69.7506 97.6732 69.6145 97.6732 69.4331V69.3878H100.985V69.1157C100.985 68.8435 100.985 68.6168 100.894 68.3447C100.803 68.0726 100.667 67.8458 100.531 67.6644C100.395 67.4376 100.168 67.3016 99.9415 67.1655C99.6693 67.0295 99.3971 66.9841 99.0342 66.9841C98.762 66.9841 98.4898 67.0748 98.2176 67.1655C97.9907 67.3016 97.7639 67.4376 97.5824 67.6191C97.3556 67.8005 97.2195 68.0272 97.1288 68.2993C97.038 68.5261 96.9927 68.7982 96.9927 69.1157C96.9927 69.3878 97.038 69.6599 97.1288 69.932C97.2195 70.2041 97.3556 70.4308 97.5371 70.6122C97.7185 70.7937 97.9 70.9751 98.1722 71.0658C98.4444 71.2018 98.7166 71.2472 99.0342 71.2472C99.8054 71.2472 100.395 70.9751 100.803 70.4308L100.214 69.9773C100.167 70.0242 100.123 70.0711 100.081 70.1164C99.9589 70.2464 99.8492 70.3636 99.7146 70.4308C99.5332 70.5669 99.3064 70.6122 99.0795 70.6122C98.9292 70.6122 98.81 70.5811 98.6703 70.5447C98.6414 70.5371 98.6116 70.5293 98.5805 70.5215C98.399 70.4762 98.2629 70.3855 98.1268 70.2948C97.9907 70.2041 97.9 70.068 97.8093 69.932ZM99.8961 68.5261C99.9415 68.6621 99.9868 68.7982 99.9868 68.9796H97.5371C97.5371 68.8435 97.5824 68.7075 97.6278 68.5714C97.7185 68.4354 97.8093 68.2993 97.9 68.2086L98.3083 67.9365C98.4444 67.8912 98.6259 67.8458 98.8073 67.8458C98.9888 67.8458 99.1703 67.8912 99.3063 67.9365C99.4424 67.9819 99.5785 68.0726 99.6693 68.1633C99.76 68.254 99.8507 68.39 99.8961 68.5261Z" fill="white"/>
<path d="M39.8316 77.0975H38.8789V76.3719H39.8316V75.4649C39.8316 74.9206 39.9223 74.5125 40.1038 74.2857C40.2853 74.0136 40.6028 73.8776 41.1018 73.8776C41.1926 73.8776 41.2833 73.8776 41.3287 73.8776C41.4194 73.8776 41.5101 73.8776 41.6009 73.9229L41.5101 74.6032C41.4194 74.5578 41.374 74.5578 41.3287 74.5578C41.2833 74.5578 41.1926 74.5578 41.1018 74.5578C40.9657 74.5578 40.875 74.5578 40.7843 74.6032C40.6936 74.6485 40.6482 74.6939 40.6028 74.7846C40.5575 74.8753 40.5121 74.966 40.5121 75.0567C40.5121 75.1474 40.5121 75.2835 40.5121 75.4195V76.3265H41.4648V77.0522H40.5121V80.4082H39.7862V77.0975H39.8316Z" fill="white"/>
<path fill-rule="evenodd" clip-rule="evenodd" d="M42.0999 77.5964C41.9638 77.8231 41.9185 78.1406 41.9185 78.4127C41.9185 78.6848 41.9638 78.9569 42.0999 79.229C42.1907 79.5011 42.3721 79.7279 42.5536 79.9093C42.735 80.0907 42.9619 80.2721 43.2341 80.3628C43.4609 80.4989 43.7331 80.5442 44.0507 80.5442C44.3229 80.5442 44.5951 80.4535 44.8673 80.3628C45.1395 80.2268 45.3663 80.0907 45.5478 79.9093C45.7292 79.7279 45.9107 79.5011 46.0014 79.229C46.1375 79.0023 46.1829 78.6848 46.1829 78.4127C46.1829 78.1406 46.0921 77.8685 46.0014 77.5964L46.0014 77.5964C45.9107 77.3243 45.7292 77.0975 45.5478 76.9161C45.3663 76.7347 45.1395 76.5533 44.8673 76.4626C44.6404 76.3265 44.3682 76.2812 44.0507 76.2812C43.7785 76.2812 43.5063 76.3719 43.2341 76.4626C42.9619 76.5533 42.735 76.7347 42.5536 76.9161C42.3721 77.0975 42.1907 77.3243 42.0999 77.5964ZM42.8258 78.9569C42.7804 78.8209 42.735 78.5941 42.735 78.4127C42.735 78.1859 42.7804 78.0045 42.8258 77.8685C42.9165 77.6871 43.0072 77.551 43.098 77.415C43.1887 77.3243 43.3248 77.2336 43.5063 77.1429C43.6424 77.0975 43.8692 77.0522 44.0507 77.0522C44.2321 77.0522 44.4136 77.0522 44.5951 77.1429C44.7312 77.1882 44.9126 77.2789 45.0034 77.415C45.1395 77.551 45.2302 77.6871 45.2756 77.8685C45.3209 78.0045 45.3663 78.2313 45.3663 78.4127C45.3663 78.5941 45.3209 78.7755 45.2756 78.9569L45.2756 78.9569C45.1848 79.1383 45.0941 79.2744 45.0034 79.4104C44.9126 79.5011 44.7765 79.5918 44.5951 79.6825C44.459 79.7279 44.2321 79.7732 44.0507 79.7732C43.8692 79.7732 43.6877 79.7732 43.5063 79.6825C43.3702 79.6372 43.1887 79.5465 43.098 79.4104C42.9619 79.2744 42.8711 79.1383 42.8258 78.9569Z" fill="white"/>
<path d="M47.226 76.3719H47.9519V77.0975C47.9973 76.9161 48.088 76.8254 48.1334 76.7347C48.1787 76.644 48.3148 76.5533 48.4055 76.5079C48.4963 76.4626 48.6324 76.4172 48.7685 76.3719C48.9046 76.3265 48.9953 76.3265 49.1314 76.3265C49.2675 76.3265 49.3582 76.3265 49.449 76.3719L49.4036 77.1882C49.3582 77.1882 49.2675 77.1429 49.2221 77.1429C49.1768 77.1429 49.086 77.1429 49.0407 77.1429C48.6777 77.1429 48.4055 77.2336 48.1787 77.4603C47.9973 77.6871 47.9065 78.4127 47.9065 78.4127V80.4535H47.1807V76.3719H47.226Z" fill="white"/>
<path d="M57.0708 75.6916C56.8893 75.4648 56.7079 75.2834 56.4357 75.1927C56.1635 75.0567 55.8913 75.0113 55.6191 75.0113C55.3015 75.0113 54.984 75.0567 54.7118 75.1927C54.4396 75.3288 54.2127 75.5102 54.0313 75.6916C53.8498 75.9184 53.6683 76.1905 53.5776 76.4626C53.4869 76.78 53.3961 77.0975 53.3961 77.415C53.3961 77.7324 53.4415 78.0499 53.5322 78.322C53.623 78.5941 53.7591 78.8662 53.9859 79.0476C54.1674 79.2744 54.3942 79.4104 54.6664 79.5465C54.9386 79.6825 55.2561 79.7279 55.6191 79.7279C55.982 79.7279 56.2542 79.6372 56.5264 79.5011C56.7986 79.3651 57.0254 79.1837 57.2069 78.9116L57.8874 79.4104C57.842 79.4558 57.7513 79.5465 57.6606 79.6825C57.5698 79.8186 57.3884 79.9093 57.2069 80.0453C57.0254 80.1814 56.7986 80.2721 56.5264 80.3628C56.2542 80.4535 55.982 80.4989 55.6191 80.4989C55.1654 80.4989 54.7118 80.4082 54.3488 80.2268C53.9859 80.0453 53.623 79.8186 53.3961 79.5011C53.1239 79.229 52.9425 78.8662 52.761 78.5034C52.6249 78.1406 52.5342 77.7778 52.5342 77.3696C52.5342 76.9161 52.6249 76.4626 52.761 76.0998C52.8971 75.6916 53.1239 75.3741 53.3961 75.102C53.6683 74.8299 53.9859 74.6032 54.3942 74.4218C54.7571 74.2857 55.2108 74.195 55.6644 74.195C56.0727 74.195 56.4357 74.2857 56.844 74.4218C57.2069 74.5578 57.5245 74.8299 57.7967 75.102L57.0708 75.6916Z" fill="white"/>
<path fill-rule="evenodd" clip-rule="evenodd" d="M59.4752 76.2812C59.1576 76.3719 58.9308 76.5533 58.704 76.7347L59.2484 77.1882C59.3391 77.0975 59.3845 77.0522 59.4752 77.0068C59.5206 76.9615 59.6113 76.9161 59.702 76.8708C59.7474 76.8481 59.8041 76.8368 59.8608 76.8254C59.9175 76.8141 59.9742 76.8027 60.0196 76.7801C60.1557 76.7347 60.2918 76.7347 60.4279 76.7347C60.564 76.7347 60.7001 76.7801 60.8362 76.8254C60.9723 76.8708 61.063 76.9161 61.1537 77.0068C61.2445 77.0975 61.2898 77.1882 61.3352 77.2789C61.3806 77.3696 61.3806 77.5057 61.3806 77.5964V77.7778H60.8362C60.5186 77.7778 60.2464 77.8231 59.9742 77.8685C59.702 77.9138 59.4298 78.0046 59.2484 78.0953C59.0215 78.2313 58.8854 78.3674 58.7493 78.5488C58.6132 78.7302 58.5679 78.9569 58.5679 79.229C58.5679 79.4558 58.5679 79.6372 58.6586 79.7733C58.7493 79.9093 58.8401 80.0454 58.9762 80.1361C59.1123 80.2268 59.2484 80.3175 59.4298 80.3628C59.6113 80.4082 59.7928 80.4535 59.9742 80.4535C60.2918 80.4535 60.564 80.3628 60.7908 80.2721C61.0176 80.1814 61.1991 80 61.3806 79.7279H61.4259C61.4259 79.7279 61.4713 80.2268 61.4713 80.4535H62.1518C62.1064 80.3175 62.1064 80.2268 62.1064 80.0907C62.1064 79.9547 62.0611 79.6826 62.0611 79.6826V77.5057C62.0611 77.3554 62.0299 77.2362 61.9935 77.0966C61.9859 77.0677 61.9781 77.0379 61.9703 77.0068C61.8796 76.8254 61.7889 76.6894 61.6528 76.5533C61.5167 76.4173 61.3352 76.3265 61.1084 76.2358C60.8815 76.1905 60.6547 76.1451 60.3372 76.1451C60.065 76.1451 59.7474 76.1905 59.4752 76.2812ZM60.3372 78.5488C60.5186 78.5034 60.7001 78.5034 60.8815 78.5034V78.5488H61.3352V78.8209C61.3352 78.9569 61.3352 79.093 61.2898 79.229C61.2445 79.3651 61.1991 79.5011 61.1084 79.5918C61.0176 79.6826 60.8815 79.7733 60.7454 79.864C60.6093 79.9093 60.4279 79.9547 60.2011 79.9547C59.9289 79.9547 59.702 79.9093 59.5659 79.8186C59.4298 79.7279 59.3391 79.5465 59.3391 79.3197C59.3391 79.1383 59.3845 79.0023 59.4752 78.9116C59.5659 78.8209 59.702 78.7302 59.8381 78.6848C59.9742 78.5941 60.1557 78.5488 60.3372 78.5488Z" fill="white"/>
<path d="M63.1953 76.3719H63.9212V77.0975C64.0119 76.8708 64.1934 76.7347 64.4202 76.5986C64.647 76.4626 64.9646 76.4172 65.2822 76.4172C65.4636 76.4172 65.6905 76.4626 65.8719 76.5079C66.0534 76.5533 66.2348 76.644 66.3709 76.7801C66.507 76.9161 66.5978 77.0522 66.6885 77.2336C66.7792 77.415 66.8246 77.6417 66.8246 77.9138V80.4535H66.0987V78.0952C66.0987 77.9138 66.0534 77.7324 66.008 77.5964C65.9627 77.4603 65.8719 77.3696 65.7812 77.2789C65.6905 77.1882 65.5997 77.1429 65.4636 77.0975C65.3275 77.0522 65.2368 77.0522 65.1007 77.0522C64.9192 77.0522 64.7831 77.0975 64.647 77.1429C64.5109 77.1882 64.3748 77.2789 64.2841 77.3696C64.1934 77.4603 64.1026 77.5964 64.0119 77.7778C63.9665 77.9592 63.9212 78.1406 63.9212 78.3674V80.4535H63.1953V76.3719H63.1953Z" fill="white"/>
<path d="M70.726 77.4603C70.5899 77.3243 70.4538 77.1882 70.2724 77.1429C70.1363 77.0522 69.9548 77.0068 69.728 77.0068C69.5011 77.0068 69.3197 77.0522 69.1836 77.1429C69.0475 77.2336 68.9114 77.3243 68.7753 77.4603C68.6845 77.5964 68.5938 77.7324 68.5484 77.9138C68.5031 78.0952 68.4577 78.2767 68.4577 78.4581C68.4577 78.6395 68.5031 78.8209 68.5484 79.0023C68.5938 79.1837 68.6845 79.3197 68.8206 79.4558C68.9114 79.5918 69.0475 79.6825 69.2289 79.7279C69.365 79.8186 69.5465 79.8186 69.7733 79.8186C70.0002 79.8186 70.1816 79.7732 70.3177 79.6825C70.4538 79.5918 70.5899 79.5011 70.726 79.3651L71.2704 79.9093C71.0889 80.1361 70.8621 80.2721 70.5899 80.3628C70.3177 80.4535 70.0455 80.4989 69.7733 80.4989C69.4558 80.4989 69.1836 80.4535 68.9114 80.3628C68.6392 80.2721 68.4123 80.1361 68.2309 79.9547C68.0494 79.7732 67.9133 79.5465 67.7772 79.2744C67.6865 79.0023 67.6411 78.7302 67.6411 78.4127C67.6411 78.0952 67.6865 77.8231 67.7772 77.551C67.8679 77.2789 68.004 77.0522 68.1855 76.8708C68.367 76.6894 68.5938 76.5533 68.866 76.4172C69.1382 76.3265 69.4104 76.2812 69.728 76.2812C70.0002 76.2812 70.3177 76.3265 70.5899 76.4172C70.8621 76.5079 71.0889 76.6894 71.2704 76.9161L70.726 77.4603Z" fill="white"/>
<path fill-rule="evenodd" clip-rule="evenodd" d="M72.7673 79.229C72.6765 79.0476 72.6312 78.9116 72.6312 78.7302V78.6848H75.9429V78.4127C75.9429 78.1406 75.9429 77.9138 75.8522 77.6417C75.7614 77.3696 75.6253 77.1429 75.4892 76.9615C75.3531 76.7347 75.1263 76.5986 74.8995 76.4626C74.6273 76.3265 74.3551 76.2812 73.9922 76.2812C73.72 76.2812 73.4478 76.3719 73.1756 76.4626C72.9487 76.5986 72.7219 76.7347 72.5404 76.9161C72.3136 77.0975 72.1775 77.3243 72.0868 77.5964C71.996 77.8231 71.9507 78.0952 71.9507 78.4127C71.9507 78.6848 71.996 78.9569 72.0868 79.229C72.1775 79.5011 72.3136 79.7279 72.4951 79.9093C72.6765 80.0907 72.858 80.2721 73.1302 80.3628C73.4024 80.4989 73.6746 80.5442 73.9922 80.5442C74.7634 80.5442 75.3531 80.2721 75.7614 79.7279L75.1717 79.2744C75.1248 79.3213 75.081 79.3681 75.0386 79.4134C74.9169 79.5435 74.8072 79.6606 74.6727 79.7279C74.4912 79.864 74.2644 79.9093 74.0375 79.9093C73.8872 79.9093 73.768 79.8782 73.6284 79.8417C73.5994 79.8342 73.5696 79.8264 73.5385 79.8186C73.357 79.7733 73.2209 79.6825 73.0848 79.5918C72.9487 79.5011 72.858 79.3651 72.7673 79.229ZM74.8087 77.5966C74.8541 77.7326 74.8995 77.8687 74.8995 78.0501H72.4497C72.4497 77.914 72.4951 77.778 72.5404 77.6419C72.6312 77.5059 72.7219 77.3698 72.8126 77.2791L73.2209 77.007C73.357 76.9617 73.5385 76.9163 73.72 76.9163C73.9014 76.9163 74.0829 76.9617 74.219 77.007C74.3551 77.0524 74.4912 77.1431 74.5819 77.2338C74.6726 77.3245 74.7634 77.4605 74.8087 77.5966Z" fill="white"/>
<path d="M76.8051 76.3719H77.5309V77.0975H77.4402C77.4856 76.9161 77.5763 76.8254 77.6217 76.7347C77.7124 76.644 77.8031 76.5533 77.8939 76.5079C77.9846 76.4626 78.1207 76.4172 78.2568 76.3719C78.3929 76.3265 78.4836 76.3265 78.6197 76.3265C78.7558 76.3265 78.8466 76.3265 78.9373 76.3719L78.8919 77.1882C78.8466 77.1882 78.7558 77.1429 78.7105 77.1429C78.6651 77.1429 78.5744 77.1429 78.529 77.1429C78.1661 77.1429 77.8939 77.2336 77.667 77.4603C77.4856 77.6871 77.4402 78.4127 77.4402 78.4127V80.4535H76.7144V76.3719H76.8051Z" fill="white"/>
<path fill-rule="evenodd" clip-rule="evenodd" d="M84.5172 74.4671H82.5664V80.4988H83.2923V77.8684H84.1996L85.6967 80.4988H86.7401L85.0162 77.7324C85.243 77.7324 85.4698 77.6417 85.6513 77.551C85.8328 77.4603 85.9689 77.3242 86.105 77.1882C86.1398 77.1185 86.1814 77.0555 86.2219 76.994C86.2869 76.8955 86.3492 76.801 86.3772 76.6893C86.4225 76.5079 86.4679 76.3265 86.4679 76.1451C86.4679 75.9637 86.4225 75.7369 86.3772 75.5555L86.3772 75.5555C86.2864 75.3741 86.1957 75.1927 86.0596 75.0113C85.9235 74.8299 85.6967 74.6938 85.4698 74.6031C85.1976 74.4671 84.8801 74.4217 84.5172 74.4671ZM84.2903 77.0977H83.2469V75.1929H84.2903C84.4264 75.1929 84.6079 75.1929 84.744 75.2383L85.1523 75.3744C85.243 75.4197 85.3337 75.5104 85.4245 75.6465C85.4698 75.7825 85.5152 75.9639 85.5152 76.1453C85.5152 76.3721 85.5152 76.5081 85.4245 76.6442C85.3791 76.7349 85.2884 76.8709 85.1523 76.9163L84.744 77.0524C84.6079 77.0977 84.4264 77.0977 84.2903 77.0977Z" fill="white"/>
<path fill-rule="evenodd" clip-rule="evenodd" d="M88.0104 79.229C87.9197 79.0476 87.8743 78.9116 87.8743 78.7302V78.6848H91.1861V78.4127C91.1861 78.1406 91.1861 77.9138 91.0953 77.6417C91.0046 77.3696 90.8685 77.1429 90.7324 76.9615C90.5963 76.7347 90.3695 76.5986 90.1427 76.4626C89.8705 76.3265 89.5983 76.2812 89.2353 76.2812C88.9631 76.2812 88.6909 76.3719 88.4187 76.4626C88.1919 76.5986 87.9651 76.7347 87.7836 76.9161C87.5568 77.0975 87.4207 77.3243 87.3299 77.5964C87.2392 77.8231 87.1938 78.0952 87.1938 78.4127C87.1938 78.6848 87.2392 78.9569 87.3299 79.229C87.4207 79.5011 87.5568 79.7279 87.7382 79.9093C87.9197 80.0907 88.1012 80.2721 88.3734 80.3628C88.6456 80.4989 88.9178 80.5442 89.2353 80.5442C90.0066 80.5442 90.5963 80.2721 91.0046 79.7279L90.4148 79.2744C90.368 79.3213 90.3241 79.3681 90.2817 79.4134C90.16 79.5435 90.0504 79.6606 89.9158 79.7279C89.7344 79.864 89.5075 79.9093 89.2807 79.9093C89.1304 79.9093 89.0112 79.8782 88.8715 79.8417C88.8426 79.8342 88.8128 79.8264 88.7817 79.8186C88.6002 79.7733 88.4641 79.6825 88.328 79.5918C88.1919 79.5011 88.1012 79.3651 88.0104 79.229ZM90.188 77.5966C90.2334 77.7326 90.2787 77.8687 90.2787 78.0501H87.829C87.829 77.914 87.8743 77.778 87.9197 77.6419C88.0104 77.5059 88.1012 77.3698 88.1919 77.2791L88.6002 77.007C88.7363 76.9617 88.9178 76.9163 89.0992 76.9163C89.2807 76.9163 89.4622 76.9617 89.5983 77.007C89.7344 77.0524 89.8705 77.1431 89.9612 77.2338C90.0519 77.3245 90.1427 77.4605 90.188 77.5966L90.188 77.5966Z" fill="white"/>
<path d="M94.1349 77.415C94.0441 77.3243 93.9534 77.1882 93.8173 77.1429C93.6812 77.0522 93.4997 77.0068 93.3183 77.0068C93.1368 77.0068 93.0007 77.0522 92.8646 77.1429C92.7285 77.2336 92.6832 77.3243 92.6832 77.4603C92.6832 77.5964 92.7285 77.6871 92.8193 77.7324C92.91 77.8231 93.0007 77.8685 93.0915 77.9138C93.1822 77.9592 93.3183 78.0045 93.409 78.0045C93.5451 78.0045 93.6358 78.0499 93.7266 78.0499C93.908 78.0952 94.0441 78.1406 94.1802 78.186C94.3163 78.2313 94.4524 78.322 94.5432 78.4127C94.6339 78.5034 94.7246 78.5941 94.77 78.7302C94.8154 78.8662 94.8607 79.0023 94.8607 79.1837C94.8607 79.4104 94.8154 79.5918 94.7246 79.7733C94.6339 79.9547 94.4978 80.0454 94.3617 80.1814C94.2256 80.2721 94.0441 80.3628 93.8627 80.4082C93.6812 80.4535 93.4544 80.4535 93.2729 80.4535C92.9554 80.4535 92.6378 80.4082 92.411 80.3175C92.1388 80.2268 91.9573 80.0454 91.7305 79.7733L92.3202 79.3197C92.4563 79.4558 92.5924 79.5465 92.7285 79.6372C92.8646 79.7279 93.0461 79.7733 93.2729 79.7733C93.3637 79.7733 93.4544 79.7733 93.5451 79.7279C93.6358 79.7279 93.7266 79.6825 93.8173 79.6372C93.908 79.5918 93.9534 79.5465 93.9988 79.4558C94.0441 79.4104 94.0895 79.3197 94.0895 79.229C94.0895 79.1383 94.0441 79.0023 93.9988 78.9569C93.908 78.8662 93.8627 78.8209 93.7266 78.7755C93.6358 78.7302 93.5451 78.6848 93.409 78.6848C93.3183 78.6395 93.1822 78.6395 93.1368 78.6395C92.9554 78.5941 92.8193 78.5488 92.6832 78.5034C92.5471 78.4581 92.411 78.3674 92.2749 78.322C92.1841 78.2313 92.0934 78.1406 92.0027 78.0045C91.9573 77.8685 91.9119 77.7324 91.9119 77.5057C91.9119 77.2789 91.9573 77.0975 92.048 76.9615C92.1388 76.8254 92.2295 76.6894 92.411 76.5533C92.5471 76.4626 92.7285 76.3719 92.91 76.3265C93.0915 76.2812 93.2729 76.2358 93.4544 76.2358C93.7266 76.2358 93.9988 76.2812 94.2256 76.3719C94.4524 76.4626 94.6793 76.644 94.8154 76.8708L94.1349 77.415Z" fill="white"/>
<path fill-rule="evenodd" clip-rule="evenodd" d="M96.3576 79.229C96.2669 79.0476 96.2215 78.9116 96.2215 78.7302V78.6848H99.5332V78.4127C99.5332 78.1406 99.5332 77.9138 99.4425 77.6417C99.3518 77.3696 99.2157 77.1429 99.0796 76.9615C98.9435 76.7347 98.7166 76.5986 98.4898 76.4626C98.2176 76.3265 97.9454 76.2812 97.5825 76.2812C97.3103 76.2812 97.0381 76.3719 96.7659 76.4626C96.5391 76.5986 96.3122 76.7347 96.1308 76.9161C95.9039 77.0975 95.7678 77.3243 95.6771 77.5964C95.5864 77.8231 95.541 78.0952 95.541 78.4127C95.541 78.6848 95.5864 78.9569 95.6771 79.229C95.7678 79.5011 95.9039 79.7279 96.0854 79.9093C96.2669 80.0907 96.4483 80.2721 96.7205 80.3628C96.9927 80.4989 97.2649 80.5442 97.5825 80.5442C98.3537 80.5442 98.9435 80.2721 99.3518 79.7279L98.762 79.2744C98.7151 79.3213 98.6713 79.3681 98.6289 79.4134C98.5072 79.5435 98.3976 79.6606 98.263 79.7279C98.0815 79.864 97.8547 79.9093 97.6279 79.9093C97.4775 79.9093 97.3583 79.8782 97.2187 79.8417C97.1898 79.8342 97.16 79.8264 97.1288 79.8186C96.9474 79.7733 96.8113 79.6825 96.6752 79.5918C96.5391 79.5011 96.4483 79.3651 96.3576 79.229ZM98.6259 77.5966C98.6713 77.7326 98.7166 77.8687 98.7166 78.0501H96.2669C96.2669 77.914 96.3122 77.778 96.3576 77.6419C96.4483 77.5059 96.5391 77.3698 96.6298 77.2791L97.0381 77.007C97.1742 76.9617 97.3557 76.9163 97.5371 76.9163C97.7186 76.9163 97.9001 76.9617 98.0362 77.007C98.1722 77.0524 98.3083 77.1431 98.3991 77.2338C98.4898 77.3245 98.5805 77.4605 98.6259 77.5966Z" fill="white"/>
<path fill-rule="evenodd" clip-rule="evenodd" d="M101.212 76.2812C100.894 76.3719 100.668 76.5533 100.441 76.7347L100.94 77.1882C101.031 77.0975 101.076 77.0522 101.167 77.0068C101.212 76.9615 101.303 76.9161 101.393 76.8708C101.439 76.8481 101.496 76.8368 101.552 76.8254C101.609 76.8141 101.666 76.8027 101.711 76.7801C101.847 76.7347 101.983 76.7347 102.119 76.7347C102.255 76.7347 102.391 76.7801 102.528 76.8254C102.664 76.8708 102.754 76.9161 102.845 77.0068C102.936 77.0975 102.981 77.1882 103.027 77.2789C103.072 77.3696 103.072 77.5057 103.072 77.5964V77.7778H102.528C102.21 77.7778 101.938 77.8231 101.666 77.8685C101.393 77.9138 101.121 78.0046 100.94 78.0953C100.713 78.2313 100.577 78.3674 100.441 78.5488C100.305 78.7302 100.259 78.9569 100.259 79.229C100.259 79.4558 100.259 79.6372 100.35 79.7733C100.441 79.9093 100.531 80.0454 100.668 80.1361C100.804 80.2268 100.94 80.3175 101.121 80.3628C101.303 80.4082 101.484 80.4535 101.666 80.4535C101.983 80.4535 102.255 80.3628 102.482 80.2721C102.709 80.1814 102.891 80 103.072 79.7279C103.072 79.7279 103.117 80.2268 103.117 80.4535H103.798C103.752 80.3175 103.752 80.2268 103.752 80.0907C103.752 79.9547 103.798 79.6826 103.798 79.6826V77.5057C103.798 77.3554 103.767 77.2362 103.73 77.0966C103.723 77.0677 103.715 77.0379 103.707 77.0068C103.616 76.8254 103.526 76.6894 103.39 76.5533C103.253 76.4173 103.072 76.3265 102.845 76.2358C102.618 76.1905 102.391 76.1451 102.074 76.1451C101.802 76.1451 101.484 76.1905 101.212 76.2812ZM102.074 78.5488C102.255 78.5034 102.437 78.5034 102.618 78.5034V78.5488H103.072V78.8209C103.072 78.9569 103.072 79.093 103.027 79.229C102.981 79.3651 102.936 79.5011 102.845 79.5918C102.754 79.6826 102.618 79.7733 102.482 79.864C102.346 79.9093 102.165 79.9547 101.938 79.9547C101.666 79.9547 101.439 79.9093 101.303 79.8186C101.167 79.7279 101.076 79.5465 101.076 79.3197C101.076 79.1383 101.121 79.0023 101.212 78.9116C101.303 78.8209 101.439 78.7302 101.575 78.6848C101.711 78.5941 101.892 78.5488 102.074 78.5488Z" fill="white"/>
<path d="M104.932 76.3719H105.658V77.0975H105.794C105.839 76.9161 105.93 76.8254 105.976 76.7347C106.066 76.644 106.157 76.5533 106.248 76.5079C106.338 76.4626 106.475 76.4172 106.611 76.3719C106.747 76.3265 106.837 76.3265 106.974 76.3265C107.11 76.3265 107.2 76.3265 107.291 76.3719L107.246 77.1882C107.2 77.1882 107.11 77.1429 107.064 77.1429C107.019 77.1429 106.928 77.1429 106.883 77.1429C106.52 77.1429 106.248 77.2336 106.021 77.4603C105.839 77.6871 105.613 78.4127 105.613 78.4127V80.4535H104.887V76.3719H104.932Z" fill="white"/>
<path d="M110.739 77.4603C110.603 77.3243 110.467 77.1882 110.285 77.1429C110.149 77.0522 109.967 77.0068 109.741 77.0068C109.514 77.0068 109.332 77.0522 109.196 77.1429C109.06 77.2336 108.924 77.3243 108.788 77.4603C108.697 77.5964 108.606 77.7324 108.561 77.9138C108.516 78.0952 108.47 78.2767 108.47 78.4581C108.47 78.6395 108.516 78.8209 108.561 79.0023C108.606 79.1837 108.697 79.3197 108.833 79.4558C108.924 79.5918 109.06 79.6825 109.242 79.7279C109.378 79.8186 109.559 79.8186 109.786 79.8186C110.013 79.8186 110.194 79.7732 110.33 79.6825C110.467 79.5918 110.603 79.5011 110.739 79.3651L111.283 79.9093C111.102 80.1361 110.875 80.2721 110.603 80.3628C110.33 80.4535 110.058 80.4989 109.786 80.4989C109.468 80.4989 109.196 80.4535 108.924 80.3628C108.652 80.2721 108.425 80.1361 108.244 79.9547C108.062 79.7732 107.926 79.5465 107.79 79.2744C107.699 79.0023 107.654 78.7302 107.654 78.4127C107.654 78.0952 107.699 77.8231 107.79 77.551C107.881 77.2789 108.017 77.0522 108.198 76.8708C108.38 76.6894 108.606 76.5533 108.879 76.4172C109.151 76.3265 109.423 76.2812 109.741 76.2812C110.013 76.2812 110.33 76.3265 110.603 76.4172C110.875 76.5079 111.102 76.6894 111.283 76.9161L110.739 77.4603Z" fill="white"/>
<path d="M112.1 73.9683H112.825V77.0522C112.916 76.8254 113.098 76.6894 113.324 76.5533C113.551 76.4172 113.869 76.3719 114.186 76.3719C114.368 76.3719 114.595 76.4172 114.776 76.4626C114.958 76.5079 115.139 76.5986 115.275 76.7347C115.411 76.8708 115.502 77.0068 115.593 77.1882C115.684 77.3696 115.729 77.5964 115.729 77.8685V80.4082H115.003V78.0499C115.003 77.8685 114.958 77.6871 114.912 77.551C114.867 77.415 114.776 77.3243 114.685 77.2336C114.595 77.1429 114.504 77.0975 114.368 77.0522C114.232 77.0068 114.141 77.0068 114.005 77.0068C113.824 77.0068 113.687 77.0522 113.551 77.0975C113.415 77.1429 113.279 77.2336 113.188 77.3243C113.098 77.415 113.007 77.5964 112.916 77.7324C112.871 77.9138 112.825 78.0952 112.825 78.322V80.4082H112.1V73.9683Z" fill="white"/>
<path fill-rule="evenodd" clip-rule="evenodd" d="M36.9736 48.7528C36.9736 42.2676 41.9639 36.8254 49.041 36.8254C56.1182 36.8254 61.0631 42.2222 61.0631 48.6621V48.7075C61.0631 55.1927 56.0728 60.6349 48.9957 60.6349C41.9185 60.6349 36.9736 55.2834 36.9736 48.7982V48.7528ZM49.041 56.9161C53.5777 56.9161 56.7533 53.288 56.7533 48.8435V48.7982C56.7533 44.3084 53.4869 40.6349 48.9503 40.6349C44.4137 40.6349 41.2381 44.263 41.2381 48.7075V48.7528C41.2381 53.2426 44.5044 56.9161 49.041 56.9161Z" fill="white"/>
<path d="M64.3745 60.1361H68.4575V37.2789H64.3745V60.1361Z" fill="white"/>
<path d="M84.0182 57.0521C79.5723 57.0521 76.3513 53.3333 76.3513 48.7528V48.7075C76.3513 44.1723 79.5723 40.4989 84.0182 40.4989C86.6948 40.4989 88.6909 41.678 90.5509 43.4013L93.1821 40.3628C90.9592 38.2313 88.3733 36.7347 84.0635 36.7347C76.9864 36.7347 72.0415 42.1769 72.0415 48.7982V48.8435C72.0415 55.5102 77.0771 60.8163 83.8821 60.8163C88.2372 60.8163 90.9138 59.229 93.3182 56.6893L90.687 54.0136C88.6909 55.873 86.8762 57.0521 84.0182 57.0521Z" fill="white"/>
<path fill-rule="evenodd" clip-rule="evenodd" d="M114.958 44.5352C114.958 48.3447 112.689 50.6123 109.468 51.5646L115.593 60.3628H110.829L105.159 52.2449H105.113H100.123V60.3628H96.0854V37.2336H106.384C109.287 37.2336 111.555 38.0953 113.052 39.5465C114.277 40.8163 114.958 42.5397 114.958 44.5352ZM100.168 41.0885V48.7075H106.157C109.06 48.7075 110.92 47.2109 110.92 44.898V44.8526C110.92 42.4036 109.106 41.0885 106.111 41.0885H100.168Z" fill="white"/>
<path d="M127.797 33.9683V83.8549" stroke="white" stroke-width="2"/>
<path fill-rule="evenodd" clip-rule="evenodd" d="M139.455 52.6984C140.272 53.0613 141.225 53.2427 142.223 53.2427C143.221 53.2427 144.174 53.0613 144.99 52.6984C145.807 52.3356 146.533 51.8821 147.168 51.2472C147.803 50.6123 148.257 49.8867 148.619 49.025C148.937 48.2087 149.118 47.2563 149.118 46.2585C149.118 45.2608 148.982 44.3538 148.619 43.4921C148.257 42.6304 147.757 41.9048 147.168 41.2699C146.578 40.635 145.852 40.1814 144.99 39.8186C144.174 39.4558 143.221 39.2744 142.223 39.2744C141.225 39.2744 140.317 39.4558 139.455 39.8186C138.639 40.1814 137.913 40.635 137.278 41.2699C136.643 41.9048 136.189 42.6304 135.826 43.4921C135.509 44.3084 135.327 45.2608 135.327 46.2585C135.327 47.2563 135.463 48.1633 135.826 49.025C136.189 49.8867 136.688 50.6123 137.278 51.2472C137.868 51.8821 138.594 52.3356 139.455 52.6984ZM144.355 51.3379C143.72 51.6554 142.994 51.7914 142.223 51.7914C141.452 51.7914 140.726 51.6554 140.091 51.3379C139.41 51.0658 138.866 50.6576 138.412 50.1588C137.958 49.6599 137.595 49.0703 137.323 48.3901C137.096 47.7551 136.96 47.0295 136.96 46.2585C136.96 45.5329 137.051 44.8073 137.323 44.127C137.595 43.4467 137.958 42.8572 138.412 42.3583C138.911 41.8594 139.455 41.4513 140.091 41.1792C140.726 40.8617 141.452 40.7257 142.223 40.7257C142.994 40.7257 143.72 40.9071 144.355 41.1792C145.036 41.4513 145.58 41.8594 146.034 42.3583C146.487 42.8572 146.85 43.4467 147.122 44.127C147.349 44.7619 147.485 45.4876 147.485 46.2585C147.485 46.9842 147.395 47.7098 147.122 48.3901C146.85 49.0703 146.487 49.6599 146.034 50.1588C145.535 50.6576 144.99 51.0658 144.355 51.3379Z" fill="white"/>
<path d="M151.296 46.2131C151.296 45.805 151.296 45.4422 151.25 45.0793C151.205 44.7165 151.205 44.3991 151.205 44.127H152.611C152.611 44.3537 152.611 44.5805 152.611 44.8526C152.611 45.1247 152.611 45.3515 152.611 45.5782H152.657C152.747 45.3515 152.884 45.17 153.065 44.9433C153.247 44.7619 153.473 44.5805 153.7 44.3991C153.972 44.263 154.245 44.127 154.562 44.0363C154.88 43.9456 155.197 43.9002 155.56 43.9002C156.15 43.9002 156.649 43.9909 157.057 44.1723C157.466 44.3537 157.828 44.5805 158.101 44.8979C158.373 45.2154 158.6 45.5782 158.69 46.0317C158.827 46.4852 158.872 46.9388 158.872 47.483V52.9252H157.42V47.6644C157.42 46.9388 157.239 46.3492 156.921 45.8957C156.604 45.4875 156.105 45.2608 155.379 45.2608C154.925 45.2608 154.471 45.3515 154.154 45.4875C153.791 45.6689 153.519 45.8957 153.292 46.1678C153.065 46.4852 152.929 46.8027 152.793 47.2562C152.657 47.7097 152.611 48.1179 152.611 48.6168V52.8798H151.16V46.2131H151.296Z" fill="white"/>
<path d="M166.448 45.3515H163.862V49.7506C163.862 50.0227 163.862 50.2948 163.862 50.5669C163.862 50.7937 163.908 51.0204 163.999 51.2018C164.089 51.3833 164.225 51.5193 164.407 51.6554C164.588 51.7461 164.815 51.8368 165.178 51.8368C165.405 51.8368 165.632 51.7914 165.813 51.7461C165.995 51.7007 166.267 51.61 166.448 51.5193L166.494 52.8345C166.221 52.9252 165.949 53.0159 165.677 53.0613C165.36 53.1066 165.087 53.152 164.815 53.152C164.271 53.152 163.862 53.0613 163.545 52.9252C163.227 52.7892 163 52.6077 162.819 52.3356C162.638 52.0635 162.547 51.7914 162.456 51.4286C162.411 51.0658 162.365 50.6576 162.365 50.2041V45.3969H160.46V44.1724H162.365V41.6327H163.817V44.127H166.403V45.3515H166.448Z" fill="white"/>
<path fill-rule="evenodd" clip-rule="evenodd" d="M169.579 44.2177C168.989 44.4444 168.444 44.8072 167.991 45.2608L168.853 46.1224C169.216 45.805 169.624 45.5329 170.078 45.3968C170.531 45.2608 171.03 45.17 171.484 45.17C172.165 45.17 172.709 45.3515 173.072 45.6689C173.48 45.9864 173.662 46.4852 173.662 47.1202V47.3923H173.117C172.612 47.3923 172.067 47.4313 171.484 47.4732C171.439 47.4765 171.394 47.4797 171.348 47.483C170.713 47.5283 170.078 47.6644 169.533 47.8458C168.989 48.0272 168.49 48.3447 168.127 48.7528C167.764 49.161 167.583 49.7505 167.583 50.4762C167.583 50.9297 167.673 51.2925 167.855 51.61C168.036 51.9274 168.308 52.1995 168.581 52.4263C168.898 52.653 169.216 52.8344 169.624 52.9251C170.032 53.0612 170.441 53.1066 170.894 53.1066C171.575 53.1066 172.119 52.9251 172.618 52.653C173.072 52.3809 173.48 52.0181 173.752 51.5646H173.798V52.1995C173.798 52.4716 173.843 52.6984 173.888 52.8798H175.295C175.271 52.7608 175.26 52.6417 175.248 52.5161C175.237 52.4025 175.226 52.2834 175.204 52.1542C175.159 51.8821 175.159 51.6553 175.159 51.3832V47.619C175.159 46.3492 174.886 45.4422 174.297 44.8072C173.707 44.2177 172.8 43.9002 171.484 43.9002C170.849 43.9002 170.214 43.9909 169.579 44.2177ZM170.032 49.1156C170.577 48.8435 171.303 48.7075 172.255 48.7075V48.7528H173.752V49.297C173.752 49.6598 173.662 50.0227 173.571 50.3401C173.435 50.6576 173.299 50.9297 173.072 51.1564C172.845 51.4286 172.573 51.61 172.255 51.746C171.938 51.8821 171.529 51.9728 171.121 51.9728C170.577 51.9728 170.123 51.8367 169.76 51.61C169.397 51.3832 169.216 50.975 169.216 50.4308C169.216 49.7959 169.488 49.3877 170.032 49.1156Z" fill="white"/>
<path d="M177.699 46.2131C177.699 45.805 177.699 45.4422 177.654 45.0793C177.608 44.7165 177.608 44.3991 177.608 44.127H179.015C179.015 44.3537 179.015 44.5805 179.015 44.8526C179.015 45.1247 179.015 45.3515 179.015 45.5782H179.06C179.151 45.3515 179.287 45.17 179.468 44.9433C179.65 44.7619 179.877 44.5805 180.104 44.3991C180.376 44.263 180.648 44.127 180.965 44.0363C181.283 43.9456 181.601 43.9002 181.964 43.9002C182.054 43.9002 182.145 43.9002 182.281 43.9002C182.372 43.9002 182.463 43.9456 182.599 43.9909L182.508 45.4875C182.236 45.3968 182.009 45.3968 181.737 45.3968C180.829 45.3968 180.194 45.6689 179.786 46.2585C179.378 46.8481 179.196 47.619 179.196 48.6621V52.9252H177.699V46.2131Z" fill="white"/>
<path fill-rule="evenodd" clip-rule="evenodd" d="M184.322 39.9093C184.096 40.1361 184.005 40.4082 184.005 40.6803C184.005 40.9978 184.096 41.2699 184.322 41.4513C184.504 41.678 184.776 41.7687 185.094 41.7687C185.411 41.7687 185.683 41.6327 185.865 41.4513C186.092 41.2699 186.182 40.9978 186.182 40.6803C186.182 40.3628 186.092 40.1361 185.865 39.9093C185.638 39.6826 185.411 39.5919 185.094 39.5919C184.776 39.5919 184.549 39.6826 184.322 39.9093ZM185.774 44.127H184.322V52.9252H185.774V44.127Z" fill="white"/>
<path fill-rule="evenodd" clip-rule="evenodd" d="M188.405 46.6666C188.179 47.2109 188.042 47.8458 188.042 48.5261C188.042 49.2063 188.179 49.8412 188.405 50.3855C188.678 50.9297 188.995 51.4285 189.403 51.8367C189.812 52.2449 190.311 52.5623 190.901 52.7891C191.445 53.0158 192.08 53.1066 192.761 53.1066C193.441 53.1066 194.031 53.0158 194.621 52.7891C195.21 52.5623 195.709 52.2449 196.118 51.8367C196.571 51.4285 196.889 50.9297 197.116 50.3855C197.343 49.8412 197.479 49.2063 197.479 48.5261C197.479 47.8458 197.343 47.2109 197.116 46.6666C196.844 46.1224 196.526 45.6236 196.118 45.2154C195.709 44.8072 195.21 44.4898 194.621 44.263C194.076 44.0363 193.441 43.9456 192.761 43.9456C192.08 43.9456 191.49 44.0363 190.901 44.263C190.311 44.4898 189.812 44.8072 189.403 45.2154C188.95 45.6236 188.632 46.1224 188.405 46.6666ZM189.857 49.7959C189.721 49.4331 189.63 48.9796 189.63 48.5261C189.63 48.0725 189.721 47.619 189.857 47.2562C189.993 46.8481 190.22 46.4852 190.492 46.2131C190.764 45.941 191.127 45.7143 191.49 45.5329C191.853 45.3515 192.307 45.2607 192.761 45.2607C193.214 45.2607 193.668 45.3515 194.031 45.5329C194.439 45.6689 194.757 45.941 195.029 46.2131C195.301 46.5306 195.528 46.8481 195.664 47.2562C195.8 47.619 195.891 48.0725 195.891 48.5261C195.891 48.9796 195.8 49.3877 195.664 49.7959C195.528 50.2041 195.301 50.5669 195.029 50.839C194.757 51.1111 194.394 51.3378 194.031 51.5192C193.668 51.7007 193.214 51.7914 192.761 51.7914C192.307 51.7914 191.853 51.7007 191.49 51.5192C191.082 51.3832 190.764 51.1111 190.492 50.839C190.22 50.5215 189.993 50.2041 189.857 49.7959Z" fill="white"/>
<path d="M204.964 39.6372H206.552V45.2608H213.629V39.6372H215.217V52.9252H213.629V46.712H206.552V52.9252H204.964V39.6372Z" fill="white"/>
<path fill-rule="evenodd" clip-rule="evenodd" d="M224.245 52.7437C224.88 52.4716 225.424 52.0181 225.968 51.3378L224.834 50.5215C224.471 50.975 224.108 51.2925 223.655 51.5193C223.201 51.746 222.657 51.8367 222.022 51.8367C221.659 51.8367 221.25 51.746 220.933 51.61C220.615 51.4739 220.343 51.2925 220.071 51.0204C219.844 50.7483 219.617 50.4762 219.481 50.1134C219.345 49.7505 219.254 49.3877 219.209 49.0249H226.286V48.5714C226.286 47.8458 226.195 47.2109 225.968 46.6213C225.742 46.0317 225.469 45.5782 225.107 45.17C224.744 44.7619 224.29 44.4898 223.791 44.263C223.292 44.0363 222.747 43.9456 222.112 43.9456C221.432 43.9456 220.842 44.0363 220.298 44.263C219.753 44.4898 219.3 44.8072 218.891 45.2154C218.483 45.6236 218.165 46.0771 217.939 46.6666C217.712 47.2109 217.621 47.8458 217.621 48.5261C217.621 49.161 217.712 49.7959 217.939 50.3401C218.12 50.8843 218.438 51.3832 218.801 51.7914C219.209 52.1995 219.663 52.5623 220.207 52.7891C220.751 53.0159 221.386 53.1519 222.067 53.1519C222.884 53.1519 223.609 53.0159 224.245 52.7437ZM223.972 45.941C224.426 46.3945 224.653 46.9841 224.698 47.7551H219.209C219.3 46.9841 219.617 46.3945 220.116 45.941C220.615 45.4875 221.25 45.2607 222.067 45.2607C222.884 45.2607 223.519 45.4875 223.972 45.941Z" fill="white"/>
<path d="M228.418 46.2131C228.418 45.805 228.418 45.4422 228.373 45.0793C228.328 44.7165 228.328 44.3991 228.328 44.127H229.734C229.734 44.3537 229.734 44.5805 229.734 44.8526C229.734 45.1247 229.734 45.3515 229.734 45.5782H229.779C229.87 45.3515 230.006 45.17 230.188 44.9433C230.369 44.7619 230.596 44.5805 230.823 44.3991C231.095 44.263 231.367 44.127 231.685 44.0363C232.002 43.9456 232.32 43.9002 232.683 43.9002C232.774 43.9002 232.864 43.9002 233 43.9002C233.091 43.9002 233.182 43.9456 233.318 43.9909L233.227 45.4875C232.955 45.3968 232.728 45.3968 232.456 45.3968C231.549 45.3968 230.914 45.6689 230.505 46.2585C230.097 46.8481 229.915 47.619 229.915 48.6621V52.9252H228.464V46.2131H228.418Z" fill="white"/>
<path fill-rule="evenodd" clip-rule="evenodd" d="M240.713 52.7437C241.348 52.4716 241.892 52.0181 242.437 51.3378L241.303 50.5215C240.94 50.975 240.577 51.2925 240.123 51.5193C239.669 51.746 239.125 51.8367 238.49 51.8367C238.127 51.8367 237.719 51.746 237.401 51.61C237.084 51.4739 236.811 51.2925 236.539 51.0204C236.312 50.7483 236.085 50.4762 235.949 50.1134C235.813 49.7505 235.723 49.3877 235.677 49.0249H242.754V48.5714C242.754 47.8458 242.664 47.2109 242.437 46.6213C242.21 46.0317 241.938 45.5782 241.575 45.17C241.212 44.7619 240.758 44.4898 240.259 44.263C239.76 44.0363 239.216 43.9456 238.581 43.9456C237.9 43.9456 237.31 44.0363 236.766 44.263C236.222 44.4898 235.768 44.8072 235.36 45.2154C234.951 45.6236 234.634 46.0771 234.407 46.6666C234.18 47.2109 234.089 47.8458 234.089 48.5261C234.089 49.161 234.18 49.7959 234.407 50.3401C234.588 50.8843 234.906 51.3832 235.269 51.7914C235.677 52.1995 236.131 52.5623 236.675 52.7891C237.22 53.0159 237.855 53.1519 238.535 53.1519C239.352 53.1519 240.078 53.0159 240.713 52.7437ZM240.441 45.941C240.894 46.3945 241.121 46.9841 241.166 47.7551H235.677C235.768 46.9841 236.085 46.3945 236.585 45.941C237.084 45.4875 237.719 45.2607 238.535 45.2607C239.352 45.2607 239.987 45.4875 240.441 45.941Z" fill="white"/>
<path fill-rule="evenodd" clip-rule="evenodd" d="M250.829 52.6077C251.464 52.2449 251.873 51.8367 252.19 51.3379H252.236V52.8798H253.687V38.6848H252.236V45.3515H252.19C251.782 44.898 251.328 44.5352 250.784 44.263C250.239 43.9909 249.65 43.8549 249.015 43.8549C248.289 43.8549 247.699 43.9909 247.109 44.2177C246.565 44.4444 246.066 44.7619 245.657 45.1701C245.249 45.5782 244.932 46.0771 244.705 46.6213C244.478 47.2109 244.387 47.8005 244.387 48.4807C244.387 49.161 244.478 49.7959 244.705 50.3401C244.886 50.8844 245.204 51.3832 245.612 51.7914C246.02 52.1995 246.474 52.517 247.018 52.7438C247.563 52.9705 248.107 53.1066 248.742 53.1066C249.559 53.1066 250.239 52.9705 250.829 52.6077ZM251.963 47.2562C252.099 47.6191 252.19 48.0726 252.19 48.5261C252.19 48.9796 252.099 49.4331 251.963 49.7959C251.827 50.2041 251.6 50.5669 251.328 50.839C251.056 51.1111 250.693 51.3379 250.33 51.5193C249.967 51.7007 249.514 51.7914 249.06 51.7914C248.606 51.7914 248.153 51.7007 247.79 51.5193C247.381 51.3832 247.064 51.1111 246.792 50.839C246.519 50.5215 246.293 50.2041 246.156 49.7959C246.02 49.4331 245.93 48.9796 245.93 48.5261C245.93 48.0726 246.02 47.6644 246.156 47.2562C246.293 46.8481 246.519 46.4853 246.792 46.2132C247.064 45.941 247.427 45.7143 247.79 45.5329C248.153 45.3515 248.606 45.2608 249.06 45.2608C249.514 45.2608 249.967 45.3515 250.33 45.5329C250.738 45.6689 251.056 45.941 251.328 46.2132C251.6 46.5306 251.827 46.8481 251.963 47.2562Z" fill="white"/>
<path fill-rule="evenodd" clip-rule="evenodd" d="M256.364 39.9093C256.137 40.1361 256.046 40.4082 256.046 40.6803C256.046 40.9978 256.137 41.2699 256.364 41.4513C256.545 41.678 256.818 41.7687 257.135 41.7687C257.453 41.7687 257.725 41.6327 257.906 41.4513C258.133 41.2699 258.224 40.9978 258.224 40.6803C258.224 40.3628 258.133 40.1361 257.906 39.9093C257.68 39.6826 257.453 39.5919 257.135 39.5919C256.818 39.5919 256.591 39.6826 256.364 39.9093ZM257.816 44.127H256.364V52.9252H257.816V44.127Z" fill="white"/>
<path d="M265.437 45.3515H262.851V49.7506C262.851 50.0227 262.851 50.2948 262.851 50.5669C262.851 50.7937 262.897 51.0204 262.987 51.2018C263.078 51.3833 263.214 51.5193 263.396 51.6554C263.577 51.7461 263.804 51.8368 264.167 51.8368C264.394 51.8368 264.62 51.7914 264.802 51.7461C264.983 51.7007 265.256 51.61 265.437 51.5193L265.482 52.8345C265.21 52.9252 264.938 53.0159 264.666 53.0613C264.348 53.1066 264.076 53.152 263.804 53.152C263.259 53.152 262.851 53.0613 262.534 52.9252C262.216 52.7892 261.989 52.6077 261.808 52.3356C261.626 52.0635 261.536 51.7914 261.445 51.4286C261.399 51.0658 261.354 50.6576 261.354 50.2041V45.3969H259.449V44.1724H261.354V41.6327H262.806V44.127H265.392V45.3515H265.437Z" fill="white"/>
<path fill-rule="evenodd" clip-rule="evenodd" d="M268.567 44.2177C267.978 44.4444 267.433 44.8072 266.98 45.2608L267.842 46.1224C268.204 45.805 268.613 45.5329 269.066 45.3968C269.52 45.2608 270.019 45.17 270.473 45.17C271.153 45.17 271.698 45.3515 272.061 45.6689C272.469 45.9864 272.65 46.4852 272.65 47.1202V47.3923H272.106C271.601 47.3923 271.056 47.4313 270.473 47.4732C270.428 47.4765 270.382 47.4797 270.337 47.483C269.702 47.5283 269.066 47.6644 268.522 47.8458C267.978 48.0272 267.479 48.3447 267.116 48.7528C266.753 49.161 266.571 49.7505 266.571 50.4762C266.571 50.9297 266.662 51.2925 266.843 51.61C267.025 51.9274 267.297 52.1995 267.569 52.4263C267.887 52.653 268.204 52.8344 268.613 52.9251C269.021 53.0612 269.429 53.1066 269.883 53.1066C270.564 53.1066 271.108 52.9251 271.607 52.653C272.061 52.3809 272.469 52.0181 272.741 51.5646H272.786V52.1995C272.786 52.4716 272.832 52.6984 272.877 52.8798H274.284C274.26 52.7608 274.248 52.6417 274.236 52.5161C274.226 52.4025 274.214 52.2834 274.193 52.1542C274.147 51.8821 274.147 51.6553 274.147 51.3832V47.619C274.147 46.3492 273.875 45.4422 273.285 44.8072C272.696 44.2177 271.788 43.9002 270.473 43.9002C269.838 43.9002 269.203 43.9909 268.567 44.2177ZM269.021 49.1156C269.565 48.8435 270.291 48.7075 271.244 48.7075V48.7528H272.741V49.297C272.741 49.6598 272.65 50.0227 272.56 50.3401C272.424 50.6576 272.287 50.9297 272.061 51.1564C271.834 51.4286 271.562 51.61 271.244 51.746C270.926 51.8821 270.518 51.9728 270.11 51.9728C269.565 51.9728 269.112 51.8367 268.749 51.61C268.386 51.3832 268.204 50.975 268.204 50.4308C268.204 49.7959 268.477 49.3877 269.021 49.1156Z" fill="white"/>
<path d="M276.733 46.2131C276.733 45.805 276.733 45.4422 276.688 45.0793C276.643 44.7165 276.643 44.3991 276.643 44.127H278.049C278.049 44.3537 278.049 44.5805 278.049 44.8526C278.049 45.1247 278.049 45.3515 278.049 45.5782H278.094C278.185 45.3515 278.321 45.17 278.503 44.9433C278.684 44.7619 278.911 44.5805 279.138 44.3991C279.41 44.263 279.682 44.127 280 44.0363C280.317 43.9456 280.635 43.9002 280.998 43.9002C281.088 43.9002 281.179 43.9002 281.315 43.9002C281.406 43.9002 281.497 43.9456 281.633 43.9909L281.542 45.4875C281.27 45.3968 281.043 45.3968 280.771 45.3968C279.864 45.3968 279.228 45.6689 278.82 46.2585C278.412 46.8481 278.23 47.619 278.23 48.6621V52.9252H276.779V46.2131H276.733Z" fill="white"/>
<path d="M286.442 54.9207C286.306 55.2835 286.124 55.6463 285.988 55.9637C285.852 56.2812 285.625 56.5533 285.444 56.7347C285.217 56.9615 284.945 57.1429 284.673 57.2336C284.355 57.3696 283.992 57.415 283.539 57.415C283.312 57.415 283.085 57.415 282.858 57.3696C282.631 57.3243 282.404 57.2789 282.223 57.1882L282.404 55.9184C282.54 55.9637 282.722 56.0091 282.858 56.0544C283.04 56.0544 283.221 56.0998 283.402 56.0998C283.856 56.0998 284.219 55.9637 284.446 55.6916C284.673 55.4195 284.854 55.0567 285.036 54.6486L285.625 53.0159L281.996 44.1724H283.72L286.442 51.0658H286.487L289.119 44.1724H290.706L286.442 54.9207Z" fill="white"/>
<path d="M145.353 64.898C144.945 64.3538 144.446 63.9456 143.856 63.6735C143.266 63.4014 142.676 63.2653 141.996 63.2653C141.27 63.2653 140.59 63.4014 139.954 63.7188C139.319 64.0363 138.82 64.4445 138.367 64.9433C137.913 65.4422 137.55 66.0318 137.323 66.712C137.051 67.3923 136.96 68.0726 136.96 68.7982C136.96 69.5692 137.096 70.2948 137.323 70.9751C137.595 71.6554 137.913 72.2449 138.367 72.7438C138.82 73.2427 139.365 73.6508 139.954 73.9229C140.59 74.195 141.27 74.3764 141.996 74.3764C142.813 74.3764 143.538 74.195 144.174 73.8776C144.809 73.5601 145.353 73.1066 145.852 72.517L147.032 73.5148C146.442 74.3311 145.716 74.9207 144.854 75.2835C143.992 75.6463 143.039 75.8277 141.996 75.8277C141.043 75.8277 140.136 75.6463 139.319 75.2835C138.503 74.9207 137.777 74.4671 137.187 73.8322C136.597 73.1973 136.098 72.4717 135.781 71.61C135.463 70.7483 135.282 69.8413 135.282 68.7982C135.282 67.8005 135.463 66.8934 135.781 66.0771C136.098 65.2154 136.597 64.4898 137.187 63.8549C137.777 63.22 138.503 62.7211 139.319 62.3583C140.136 61.9955 141.043 61.8141 142.041 61.8141C142.949 61.8141 143.811 61.9955 144.627 62.313C145.444 62.6304 146.17 63.1746 146.714 63.9003L145.353 64.898Z" fill="white"/>
<path fill-rule="evenodd" clip-rule="evenodd" d="M150.343 66.7573C149.754 66.9841 149.209 67.3469 148.755 67.8004L149.617 68.6621C149.98 68.3446 150.389 68.0725 150.842 67.9365C151.296 67.8004 151.795 67.7097 152.249 67.7097C152.929 67.7097 153.474 67.8911 153.836 68.2086C154.245 68.526 154.426 69.0249 154.426 69.6598V69.9319H153.882C153.377 69.9319 152.832 69.971 152.249 70.0129C152.204 70.0161 152.158 70.0194 152.113 70.0226C151.477 70.068 150.842 70.2041 150.298 70.3855C149.754 70.5669 149.254 70.8843 148.892 71.2925C148.529 71.7007 148.347 72.2902 148.347 73.0158C148.347 73.4694 148.438 73.8322 148.619 74.1496C148.801 74.4671 149.073 74.7392 149.345 74.966C149.663 75.1927 149.98 75.3741 150.389 75.4648C150.797 75.6009 151.205 75.6462 151.659 75.6462C152.339 75.6462 152.884 75.4648 153.383 75.1927C153.836 74.9206 154.245 74.5578 154.517 74.1043H154.562V74.7392C154.562 75.0113 154.608 75.2381 154.653 75.4195H156.059C156.036 75.3004 156.024 75.1814 156.012 75.0558C156.002 74.9422 155.99 74.8231 155.969 74.6939C155.923 74.4217 155.923 74.195 155.923 73.9229V70.1587C155.923 68.8889 155.651 67.9818 155.061 67.3469C154.472 66.7573 153.564 66.4399 152.249 66.4399C151.614 66.4399 150.978 66.5306 150.343 66.7573ZM150.797 71.61C151.341 71.3378 152.067 71.2018 153.02 71.2018V71.2471H154.517V71.7914C154.517 72.1542 154.426 72.517 154.336 72.8344C154.199 73.1519 154.063 73.424 153.836 73.6508C153.61 73.9229 153.337 74.1043 153.02 74.2403C152.702 74.3764 152.294 74.4671 151.886 74.4671C151.341 74.4671 150.888 74.331 150.525 74.1043C150.162 73.8775 149.98 73.4694 149.98 72.9251C149.98 72.2902 150.253 71.8821 150.797 71.61Z" fill="white"/>
<path d="M158.464 68.7528C158.464 68.3446 158.464 67.9818 158.418 67.619C158.373 67.2562 158.373 66.9387 158.373 66.6666H159.779C159.779 66.8934 159.779 67.1202 159.779 67.3923C159.779 67.6644 159.779 67.8911 159.779 68.1179H159.825C159.915 67.8911 160.052 67.7097 160.233 67.483C160.414 67.3016 160.641 67.1202 160.868 66.9387C161.14 66.8027 161.413 66.6666 161.73 66.5759C162.048 66.4852 162.365 66.4399 162.728 66.4399C163.318 66.4399 163.817 66.5306 164.225 66.712C164.634 66.8934 164.996 67.1202 165.269 67.4376C165.541 67.7551 165.768 68.1179 165.858 68.5714C165.995 69.0249 166.04 69.4784 166.04 70.0226V75.4648H164.588V70.2041C164.588 69.4784 164.407 68.8889 164.089 68.4353C163.772 68.0272 163.273 67.8004 162.547 67.8004C162.093 67.8004 161.639 67.8911 161.322 68.0272C160.959 68.2086 160.687 68.4353 160.46 68.7075C160.233 69.0249 160.097 69.3424 159.961 69.7959C159.825 70.2494 159.779 70.6576 159.779 71.1564V75.4195H158.328V68.7528H158.464Z" fill="white"/>
<path d="M175.068 68.8436C174.75 68.4808 174.433 68.2086 174.07 68.0272C173.707 67.8458 173.298 67.7551 172.89 67.7551C172.391 67.7551 171.983 67.8458 171.575 68.0272C171.212 68.2086 170.894 68.4354 170.667 68.7529C170.44 69.0703 170.259 69.3878 170.123 69.7959C169.987 70.2041 169.941 70.6123 169.941 71.0658C169.941 71.5193 170.032 71.9275 170.168 72.3356C170.304 72.7438 170.531 73.0613 170.758 73.3787C171.03 73.6962 171.302 73.9229 171.665 74.1043C172.028 74.2857 172.436 74.3764 172.89 74.3764C173.843 74.3764 174.614 74.0136 175.113 73.288L176.202 74.3311C175.794 74.83 175.295 75.1928 174.705 75.4195C174.115 75.6463 173.525 75.737 172.89 75.737C172.21 75.737 171.575 75.6463 171.03 75.4195C170.486 75.1928 169.987 74.8753 169.578 74.4672C169.17 74.059 168.898 73.5601 168.671 73.0159C168.444 72.4717 168.354 71.8368 168.354 71.1565C168.354 70.4762 168.444 69.8866 168.671 69.2971C168.898 68.7529 169.215 68.254 169.578 67.8458C169.987 67.4377 170.44 67.1202 171.03 66.8935C171.575 66.6667 172.21 66.5306 172.89 66.5306C173.525 66.5306 174.16 66.6213 174.75 66.8481C175.34 67.0749 175.839 67.4377 176.293 67.8912L175.068 68.8436Z" fill="white"/>
<path fill-rule="evenodd" clip-rule="evenodd" d="M183.824 75.2381C184.459 74.966 185.003 74.5124 185.548 73.8322L184.413 73.0158C184.05 73.4694 183.688 73.7868 183.234 74.0136C182.78 74.2403 182.236 74.331 181.601 74.331C181.238 74.331 180.829 74.2403 180.512 74.1043C180.194 73.9682 179.922 73.7868 179.65 73.5147C179.423 73.2426 179.196 72.9705 179.06 72.6077C178.924 72.2449 178.833 71.8821 178.788 71.5192H185.865V71.0657C185.865 70.3401 185.774 69.7052 185.548 69.1156C185.321 68.526 185.049 68.0725 184.686 67.6644C184.323 67.2562 183.869 66.9841 183.37 66.7573C182.871 66.5306 182.327 66.4399 181.691 66.4399C181.011 66.4399 180.421 66.5306 179.877 66.7573C179.332 66.9841 178.879 67.3016 178.47 67.7097C178.062 68.1179 177.745 68.5714 177.518 69.161C177.291 69.7052 177.2 70.3401 177.2 71.0204C177.2 71.6553 177.291 72.2902 177.518 72.8344C177.699 73.3787 178.017 73.8775 178.38 74.2857C178.788 74.6939 179.242 75.0567 179.786 75.2834C180.33 75.5102 180.966 75.6462 181.646 75.6462C182.463 75.6462 183.189 75.5102 183.824 75.2381ZM183.597 68.4353C184.05 68.8889 184.277 69.4784 184.323 70.2494H178.833C178.924 69.4784 179.242 68.8889 179.741 68.4353C180.24 67.9818 180.875 67.7551 181.691 67.7551C182.508 67.7551 183.143 67.9818 183.597 68.4353Z" fill="white"/>
<path d="M188.042 68.7528C188.042 68.3446 188.042 67.9818 187.997 67.619C187.952 67.2562 187.952 66.9387 187.952 66.6666H189.358C189.358 66.8934 189.358 67.1202 189.358 67.3923C189.358 67.6644 189.358 67.8911 189.358 68.1179H189.403C189.494 67.8911 189.63 67.7097 189.812 67.483C189.993 67.3016 190.22 67.1202 190.447 66.9387C190.719 66.8027 190.991 66.6666 191.309 66.5759C191.626 66.4852 191.944 66.4399 192.307 66.4399C192.398 66.4399 192.488 66.4399 192.624 66.4399C192.715 66.4399 192.806 66.4852 192.942 66.5306L192.851 68.0272C192.579 67.9365 192.352 67.9365 192.08 67.9365C191.173 67.9365 190.538 68.2086 190.129 68.7982C189.721 69.3877 189.539 70.1587 189.539 71.2018V75.4648H188.088V68.7528H188.042Z" fill="white"/>
<path fill-rule="evenodd" clip-rule="evenodd" d="M203.24 62.1315H199.838H199.792V75.3742H201.38V69.3878H203.422L207.006 75.3742H208.956L205.191 69.2517C206.234 69.1157 207.051 68.7075 207.641 68.1179C208.231 67.5284 208.503 66.7574 208.503 65.7596C208.503 64.9433 208.367 64.3084 208.049 63.8095C207.732 63.356 207.323 62.9932 206.824 62.7211C206.325 62.449 205.781 62.3129 205.146 62.2222C204.511 62.1769 203.875 62.1315 203.24 62.1315ZM202.832 68.0272H201.471V63.6281H203.694C204.057 63.6281 204.465 63.6735 204.828 63.7188C205.236 63.7642 205.554 63.9002 205.872 64.0363C206.144 64.2177 206.416 64.4445 206.597 64.7166C206.779 64.9887 206.87 65.3968 206.87 65.8503C206.87 66.3946 206.779 66.8481 206.507 67.1202C206.234 67.3923 205.917 67.6191 205.509 67.7551C205.1 67.8912 204.647 67.9365 204.193 67.9819L204.193 67.9819C203.739 68.0272 203.286 68.0272 202.832 68.0272Z" fill="white"/>
<path fill-rule="evenodd" clip-rule="evenodd" d="M217.077 75.2381C217.712 74.966 218.257 74.5124 218.801 73.8322L217.667 73.0158C217.304 73.4694 216.941 73.7868 216.487 74.0136C216.034 74.2403 215.489 74.331 214.854 74.331C214.491 74.331 214.083 74.2403 213.765 74.1043C213.448 73.9682 213.176 73.7868 212.903 73.5147C212.677 73.2426 212.45 72.9705 212.314 72.6077C212.178 72.2449 212.087 71.8821 212.041 71.5192H219.119V71.0657C219.119 70.3401 219.028 69.7052 218.801 69.1156C218.574 68.526 218.302 68.0725 217.939 67.6644C217.576 67.2562 217.122 66.9841 216.623 66.7573C216.124 66.5306 215.58 66.4399 214.945 66.4399C214.264 66.4399 213.675 66.5306 213.13 66.7573C212.586 66.9841 212.132 67.3016 211.724 67.7097C211.316 68.1179 210.998 68.5714 210.771 69.161C210.544 69.7052 210.454 70.3401 210.454 71.0204C210.454 71.6553 210.544 72.2902 210.771 72.8344C210.953 73.3787 211.27 73.8775 211.633 74.2857C212.041 74.6939 212.495 75.0567 213.039 75.2834C213.584 75.5102 214.219 75.6462 214.9 75.6462C215.716 75.6462 216.442 75.5102 217.077 75.2381ZM216.805 68.4353C217.259 68.8889 217.485 69.4784 217.531 70.2494H212.041C212.132 69.4784 212.45 68.8889 212.949 68.4353C213.448 67.9818 214.083 67.7551 214.9 67.7551C215.716 67.7551 216.351 67.9818 216.805 68.4353Z" fill="white"/>
<path d="M221.432 73.1519C221.704 73.5147 222.022 73.7868 222.385 74.0136C222.748 74.2403 223.156 74.331 223.7 74.331C223.927 74.331 224.154 74.2857 224.381 74.2403C224.608 74.195 224.834 74.1043 225.016 74.0136C225.197 73.9229 225.333 73.7415 225.47 73.6054C225.56 73.424 225.651 73.2426 225.651 73.0158C225.651 72.7891 225.606 72.5623 225.47 72.4263C225.379 72.2902 225.243 72.1542 225.061 72.0635C224.88 71.9728 224.698 71.8821 224.471 71.7914C224.245 71.746 224.018 71.6553 223.791 71.61C223.383 71.5192 222.974 71.4285 222.611 71.2925C222.249 71.2018 221.886 71.0204 221.613 70.839C221.341 70.6576 221.114 70.4308 220.933 70.1134C220.751 69.8412 220.661 69.4784 220.661 69.0249C220.661 68.6168 220.751 68.2086 220.933 67.8911C221.114 67.5737 221.387 67.3016 221.704 67.0748C222.022 66.848 222.385 66.712 222.748 66.5759C223.156 66.4852 223.519 66.3945 223.927 66.3945C224.562 66.3945 225.152 66.5306 225.651 66.7573C226.195 67.0295 226.604 67.3923 226.921 67.9818L225.696 68.7982C225.515 68.4807 225.243 68.2539 224.971 68.0272C224.653 67.8458 224.29 67.7551 223.836 67.7551C223.655 67.7551 223.428 67.8004 223.247 67.8458C223.02 67.8911 222.838 67.9818 222.702 68.0725C222.521 68.1632 222.385 68.2993 222.294 68.4353C222.203 68.5714 222.112 68.7528 222.112 68.9796C222.112 69.161 222.158 69.3424 222.294 69.4784C222.43 69.6145 222.566 69.7052 222.793 69.8412C223.02 69.9319 223.247 70.0226 223.519 70.1134C223.791 70.2041 224.063 70.2494 224.335 70.2948C224.744 70.3855 225.107 70.4762 225.424 70.5669C225.787 70.7029 226.059 70.839 226.332 71.0657C226.604 71.2471 226.785 71.5192 226.967 71.8367C227.103 72.1542 227.193 72.517 227.193 72.9251C227.193 73.424 227.103 73.8322 226.876 74.195C226.694 74.5578 226.422 74.8299 226.059 75.0567C225.742 75.2834 225.333 75.4195 224.925 75.5555C224.517 75.6916 224.063 75.6916 223.655 75.6916C222.884 75.6916 222.249 75.5555 221.704 75.3288C221.16 75.102 220.661 74.6485 220.252 74.0589L221.432 73.1519Z" fill="white"/>
<path fill-rule="evenodd" clip-rule="evenodd" d="M235.269 75.2381C235.904 74.966 236.448 74.5124 236.993 73.8322L235.859 73.0158C235.496 73.4694 235.133 73.7868 234.679 74.0136C234.226 74.2403 233.681 74.331 233.046 74.331C232.683 74.331 232.275 74.2403 231.957 74.1043C231.64 73.9682 231.367 73.7868 231.095 73.5147C230.868 73.2426 230.642 72.9705 230.506 72.6077C230.369 72.2449 230.279 71.8821 230.233 71.5192H237.31V71.0657C237.31 70.3401 237.22 69.7052 236.993 69.1156C236.766 68.526 236.494 68.0725 236.131 67.6644C235.768 67.2562 235.314 66.9841 234.815 66.7573C234.316 66.5306 233.772 66.4399 233.137 66.4399C232.456 66.4399 231.867 66.5306 231.322 66.7573C230.778 66.9841 230.324 67.3016 229.916 67.7097C229.507 68.1179 229.19 68.5714 228.963 69.161C228.736 69.7052 228.646 70.3401 228.646 71.0204C228.646 71.6553 228.736 72.2902 228.963 72.8344C229.145 73.3787 229.462 73.8775 229.825 74.2857C230.233 74.6939 230.687 75.0567 231.231 75.2834C231.776 75.5102 232.411 75.6462 233.091 75.6462C233.908 75.6462 234.634 75.5102 235.269 75.2381ZM234.997 68.4353C235.45 68.8889 235.677 69.4784 235.723 70.2494H230.233C230.324 69.4784 230.642 68.8889 231.141 68.4353C231.64 67.9818 232.275 67.7551 233.091 67.7551C233.908 67.7551 234.543 67.9818 234.997 68.4353Z" fill="white"/>
<path fill-rule="evenodd" clip-rule="evenodd" d="M240.894 66.7573C240.304 66.9841 239.76 67.3469 239.306 67.8004L240.168 68.6621C240.531 68.3446 240.939 68.0725 241.393 67.9365C241.847 67.8004 242.346 67.7097 242.799 67.7097C243.48 67.7097 244.024 67.8911 244.387 68.2086C244.796 68.526 244.977 69.0249 244.977 69.6598V69.9319H244.433C243.927 69.9319 243.383 69.971 242.799 70.0129C242.754 70.0161 242.709 70.0194 242.663 70.0226C242.028 70.068 241.393 70.2041 240.849 70.3855C240.304 70.5669 239.805 70.8843 239.442 71.2925C239.079 71.7007 238.898 72.2902 238.898 73.0158C238.898 73.4694 238.989 73.8322 239.17 74.1496C239.352 74.4671 239.624 74.7392 239.896 74.966C240.214 75.1927 240.531 75.3741 240.939 75.4648C241.348 75.6009 241.756 75.6462 242.21 75.6462C242.89 75.6462 243.435 75.4648 243.934 75.1927C244.387 74.9206 244.796 74.5578 245.068 74.1043H245.113V74.7392C245.113 75.0113 245.158 75.2381 245.204 75.4195H246.61C246.586 75.3004 246.575 75.1814 246.563 75.0558C246.552 74.9422 246.541 74.8231 246.519 74.6939C246.474 74.4217 246.474 74.195 246.474 73.9229V70.1587C246.474 68.8889 246.202 67.9818 245.612 67.3469C245.022 66.7573 244.115 66.4399 242.799 66.4399C242.164 66.4399 241.529 66.5306 240.894 66.7573ZM241.348 71.61C241.892 71.3378 242.618 71.2018 243.571 71.2018V71.2471H245.068V71.7914C245.068 72.1542 244.977 72.517 244.886 72.8344C244.75 73.1519 244.614 73.424 244.387 73.6508C244.16 73.9229 243.888 74.1043 243.571 74.2403C243.253 74.3764 242.845 74.4671 242.437 74.4671C241.892 74.4671 241.438 74.331 241.076 74.1043C240.713 73.8775 240.531 73.4694 240.531 72.9251C240.531 72.2902 240.803 71.8821 241.348 71.61Z" fill="white"/>
<path d="M249.06 68.7528C249.06 68.3446 249.06 67.9818 249.015 67.619C248.969 67.2562 248.969 66.9387 248.969 66.6666H250.376C250.376 66.8934 250.376 67.1202 250.376 67.3923C250.376 67.6644 250.376 67.8911 250.376 68.1179H250.421C250.512 67.8911 250.648 67.7097 250.829 67.483C251.011 67.3016 251.238 67.1202 251.464 66.9387C251.737 66.8027 252.009 66.6666 252.326 66.5759C252.644 66.4852 252.961 66.4399 253.324 66.4399C253.415 66.4399 253.506 66.4399 253.642 66.4399C253.733 66.4399 253.823 66.4852 253.96 66.5306L253.869 68.0272C253.597 67.9365 253.37 67.9365 253.098 67.9365C252.19 67.9365 251.555 68.2086 251.147 68.7982C250.739 69.3877 250.557 70.1587 250.557 71.2018V75.4648H249.105V68.7528H249.06Z" fill="white"/>
<path d="M261.445 68.8436C261.128 68.4808 260.81 68.2086 260.447 68.0272C260.084 67.8458 259.676 67.7551 259.268 67.7551C258.769 67.7551 258.36 67.8458 257.952 68.0272C257.589 68.2086 257.271 68.4354 257.045 68.7529C256.818 69.0703 256.636 69.3878 256.5 69.7959C256.364 70.2041 256.319 70.6123 256.319 71.0658C256.319 71.5193 256.41 71.9275 256.546 72.3356C256.682 72.7438 256.909 73.0613 257.135 73.3787C257.408 73.6962 257.68 73.9229 258.043 74.1043C258.406 74.2857 258.814 74.3764 259.268 74.3764C260.22 74.3764 260.991 74.0136 261.491 73.288L262.579 74.3311C262.171 74.83 261.672 75.1928 261.082 75.4195C260.492 75.6463 259.903 75.737 259.268 75.737C258.587 75.737 257.952 75.6463 257.408 75.4195C256.863 75.1928 256.364 74.8753 255.956 74.4672C255.548 74.059 255.275 73.5601 255.049 73.0159C254.822 72.4717 254.731 71.8368 254.731 71.1565C254.731 70.4762 254.822 69.8866 255.049 69.2971C255.275 68.7529 255.593 68.254 255.956 67.8458C256.364 67.4377 256.818 67.1202 257.408 66.8935C257.952 66.6667 258.587 66.5306 259.268 66.5306C259.903 66.5306 260.538 66.6213 261.128 66.8481C261.717 67.0749 262.216 67.4377 262.67 67.8912L261.445 68.8436Z" fill="white"/>
<path d="M264.121 61.2698H265.573V67.8912H265.619C265.709 67.7097 265.845 67.5283 266.027 67.3923C266.208 67.2562 266.39 67.0748 266.662 66.9388C266.889 66.8027 267.161 66.6667 267.479 66.6213C267.796 66.5306 268.114 66.4853 268.431 66.4853C269.021 66.4853 269.52 66.576 269.928 66.7574C270.337 66.9388 270.7 67.1655 270.972 67.483C271.244 67.8004 271.471 68.1633 271.562 68.6168C271.698 69.0703 271.743 69.5238 271.743 70.068V75.5102H270.291V70.2494C270.291 69.5238 270.11 68.9342 269.792 68.4807C269.475 68.0726 268.976 67.8458 268.25 67.8458C267.796 67.8458 267.342 67.9365 267.025 68.0726C266.662 68.254 266.39 68.4807 266.163 68.7528C265.936 69.0703 265.8 69.3877 265.664 69.8413C265.528 70.2948 265.482 70.7029 265.482 71.2018V75.4648H264.031V61.2698H264.121Z" fill="white"/>
<path d="M279.773 62.1315H281.769L289.481 73.1519H289.527V62.1315H291.115V75.4195H289.118L281.406 64.3991H281.361V75.4195H279.773V62.1315Z" fill="white"/>
<path fill-rule="evenodd" clip-rule="evenodd" d="M300.097 75.2381C300.732 74.966 301.277 74.5124 301.821 73.8322L300.687 73.0158C300.324 73.4694 299.961 73.7868 299.507 74.0136C299.054 74.2403 298.509 74.331 297.874 74.331C297.511 74.331 297.103 74.2403 296.785 74.1043C296.468 73.9682 296.196 73.7868 295.923 73.5147C295.697 73.2426 295.47 72.9705 295.334 72.6077C295.198 72.2449 295.107 71.8821 295.061 71.5192H302.139V71.0657C302.139 70.3401 302.048 69.7052 301.821 69.1156C301.594 68.526 301.322 68.0725 300.959 67.6644C300.596 67.2562 300.142 66.9841 299.643 66.7573C299.144 66.5306 298.6 66.4399 297.965 66.4399C297.284 66.4399 296.695 66.5306 296.15 66.7573C295.606 66.9841 295.152 67.3016 294.744 67.7097C294.336 68.1179 294.018 68.5714 293.791 69.161C293.564 69.7052 293.474 70.3401 293.474 71.0204C293.474 71.6553 293.564 72.2902 293.791 72.8344C293.973 73.3787 294.29 73.8775 294.653 74.2857C295.061 74.6939 295.515 75.0567 296.06 75.2834C296.604 75.5102 297.239 75.6462 297.92 75.6462C298.736 75.6462 299.462 75.5102 300.097 75.2381ZM299.87 68.4353C300.324 68.8889 300.551 69.4784 300.596 70.2494H295.107C295.198 69.4784 295.515 68.8889 296.014 68.4353C296.513 67.9818 297.148 67.7551 297.965 67.7551C298.781 67.7551 299.417 67.9818 299.87 68.4353Z" fill="white"/>
<path d="M309.125 67.8912H306.539V72.2903C306.539 72.5624 306.539 72.8345 306.539 73.1066C306.539 73.3334 306.585 73.5601 306.675 73.7415C306.766 73.9229 306.902 74.059 307.084 74.195C307.265 74.2857 307.492 74.3764 307.855 74.3764C308.082 74.3764 308.308 74.3311 308.49 74.2857C308.671 74.2404 308.944 74.1497 309.125 74.059L309.17 75.3742C308.898 75.4649 308.626 75.5556 308.354 75.6009C308.036 75.6463 307.764 75.6916 307.492 75.6916C306.947 75.6916 306.539 75.6009 306.222 75.4649C305.904 75.3288 305.677 75.1474 305.496 74.8753C305.314 74.6032 305.224 74.3311 305.133 73.9683C305.087 73.6055 305.042 73.1973 305.042 72.7438V67.9365H303.137V66.712H305.042V64.2177H306.494V66.712H309.08V67.8912H309.125Z" fill="white"/>
<path d="M320.194 75.4649H318.743L316.247 68.7075H316.202L313.979 75.4649H312.482L309.624 66.6667H311.257L313.253 73.4241H313.299L315.567 66.6667H317.109L319.423 73.4241H319.468L321.465 66.6667H323.052L320.194 75.4649Z" fill="white"/>
<path fill-rule="evenodd" clip-rule="evenodd" d="M324.413 69.2064C324.186 69.7506 324.05 70.3855 324.05 71.0658C324.05 71.7461 324.186 72.381 324.413 72.9252C324.685 73.4694 325.003 73.9683 325.411 74.3764C325.82 74.7846 326.319 75.1021 326.908 75.3288C327.453 75.5556 328.088 75.6463 328.768 75.6463C329.449 75.6463 330.039 75.5556 330.628 75.3288C331.218 75.1021 331.717 74.7846 332.125 74.3764C332.579 73.9683 332.897 73.4694 333.124 72.9252C333.35 72.381 333.486 71.7461 333.486 71.0658C333.486 70.3855 333.35 69.7506 333.124 69.2064C332.851 68.6622 332.534 68.1633 332.125 67.7551C331.717 67.347 331.218 67.0295 330.628 66.8028C330.084 66.576 329.449 66.4853 328.768 66.4853C328.088 66.4853 327.498 66.576 326.908 66.8028C326.319 67.0295 325.82 67.347 325.411 67.7551C324.958 68.1633 324.64 68.6622 324.413 69.2064ZM325.865 72.3356C325.729 71.9728 325.638 71.5193 325.638 71.0658C325.638 70.5669 325.729 70.1588 325.865 69.7959C326.001 69.3878 326.228 69.025 326.5 68.7529C326.772 68.4808 327.135 68.254 327.498 68.0726C327.861 67.8912 328.315 67.8005 328.768 67.8005C329.222 67.8005 329.676 67.8912 330.039 68.0726C330.447 68.2086 330.764 68.4808 331.037 68.7529C331.309 69.0703 331.536 69.3878 331.672 69.7959C331.808 70.1588 331.899 70.6123 331.899 71.0658C331.899 71.5193 331.808 71.9275 331.672 72.3356C331.536 72.7438 331.309 73.1066 331.037 73.3787C330.764 73.6508 330.402 73.8776 330.039 74.059C329.676 74.2404 329.222 74.3311 328.768 74.3311C328.315 74.3311 327.861 74.2404 327.498 74.059C327.09 73.9229 326.772 73.6508 326.5 73.3787C326.228 73.0613 326.001 72.7438 325.865 72.3356Z" fill="white"/>
<path d="M335.573 68.7528C335.573 68.3446 335.573 67.9818 335.528 67.619C335.482 67.2562 335.482 66.9387 335.482 66.6666H336.889C336.889 66.8934 336.889 67.1202 336.889 67.3923C336.889 67.6644 336.889 67.8911 336.889 68.1179H336.934C337.025 67.8911 337.161 67.7097 337.342 67.483C337.524 67.3016 337.751 67.1202 337.978 66.9387C338.25 66.8027 338.522 66.6666 338.84 66.5759C339.157 66.4852 339.475 66.4399 339.838 66.4399C339.928 66.4399 340.019 66.4399 340.155 66.4399C340.246 66.4399 340.337 66.4852 340.473 66.5306L340.382 68.0272C340.11 67.9365 339.883 67.9365 339.611 67.9365C338.703 67.9365 338.068 68.2086 337.66 68.7982C337.252 69.3877 337.07 70.1587 337.07 71.2018V75.4648H335.573V68.7528Z" fill="white"/>
<path d="M342.061 61.2698H343.513V70.5669L347.505 66.712H349.592L345.327 70.7029L350 75.5102H347.822L343.467 70.8843V75.5102H342.016V61.2698H342.061Z" fill="white"/>
</svg>
